<svg xmlns="http://www.w3.org/2000/svg" viewBox="0 0 485.05 78.99"><defs><style>.cls-1{fill:#fff;}</style></defs><g id="Layer_1_copy" data-name="Layer 1 copy"><path d="M21.32,46.08c-2.09,0-4.13,0-6.08-.12s-3.76-.17-5.42-.27l-1.35-.08L8,44.33c-.21-.66-.43-1.37-.63-2.13S7,40.65,6.89,39.89a19.81,19.81,0,0,1-.32-2.3,10.76,10.76,0,0,1,0-2.06l0-.48.27-.4C8,33,9.24,31.07,10.5,29.07s2.51-4,3.72-5.9,2.3-3.74,3.29-5.45l.75-1.31-2.66.08-1.57,0-1.56,0a17.83,17.83,0,0,1-3.3-.39L8,15.85l-.33-1.16a18.61,18.61,0,0,1-.68-4c-.08-1.27-.09-2.61,0-4L7,4.86l1.85-.08c1.19,0,2.77-.17,4.68-.37S17.7,4,20,3.94c1.23,0,2.49-.08,3.75-.08q1.65,0,3.33.06a31.17,31.17,0,0,1,7,1l1.4.38.07,1.45c0,.55.06,1.17.11,1.88s.09,1.51.12,2.29,0,1.55,0,2.3a16.81,16.81,0,0,1-.2,2.25l0,.26-.11.24c-1,2.17-2.05,4.21-3.09,6s-2.07,3.57-3.09,5.22-2.06,3.28-3.09,4.84c-.4.62-.81,1.25-1.21,1.89h6.36c1.16,0,2.2,0,3.1.12l1.66.16L36.25,36a22.32,22.32,0,0,1,0,3.92,35.41,35.41,0,0,1-.59,3.84l-.28,1.36L34,45.29c-2,.31-4.17.52-6.34.63S23.39,46.08,21.32,46.08Z" transform="translate(-6.53 -3.86)"/><path d="M34.26,36.14a20.06,20.06,0,0,1,0,3.55,33.46,33.46,0,0,1-.56,3.62,57.12,57.12,0,0,1-6.12.61c-2.1.1-4.18.16-6.24.16s-4.06,0-6-.12-3.73-.17-5.38-.27c-.2-.61-.4-1.28-.59-2s-.36-1.45-.5-2.18a17.8,17.8,0,0,1-.28-2.08,7.8,7.8,0,0,1,0-1.68q1.71-2.59,3.62-5.61l3.72-5.91q1.82-2.91,3.32-5.5t2.35-4.28a26.69,26.69,0,0,0-3,0c-1,0-2,.07-3.05.09s-2,0-3,0a15.45,15.45,0,0,1-2.92-.34A16.67,16.67,0,0,1,9,10.58a36.71,36.71,0,0,1,0-3.8c1.24,0,2.85-.18,4.81-.38s4.06-.36,6.31-.46,4.56-.11,6.91,0a29,29,0,0,1,6.59,1c0,.56.06,1.21.11,1.93s.09,1.47.12,2.22,0,1.48,0,2.19a14.16,14.16,0,0,1-.17,1.95c-1,2.14-2,4.1-3,5.9s-2,3.51-3.05,5.15-2,3.24-3.06,4.79-2,3.16-3,4.81a27.16,27.16,0,0,0,2.94.17l3.45,0h3.44C32.44,36,33.42,36.06,34.26,36.14Z" transform="translate(-6.53 -3.86)"/><path d="M47.24,46q-1.4,0-2.64-.06a27.24,27.24,0,0,1-3.45-.35l-.79-.15s-1.17-1.62-1.59-2.18S37.9,42,37.48,41.34s-.8-1.27-1.15-1.89a13.54,13.54,0,0,1-.88-1.83l-.15-.38v-.4a25.64,25.64,0,0,1,.75-5.35,21,21,0,0,1,1.65-4.57l.26-.48.46-.28a12.93,12.93,0,0,1,3.09-1.31c1.16-.35,2.46-.7,3.87-1q1.59-.39,3.3-.72l-.6,0c-1,0-2-.05-2.94-.05h-.72L41,23H39.06L39,21.1a18.1,18.1,0,0,1,0-2.19c0-.76.15-1.51.27-2.23a14.65,14.65,0,0,1,.49-2,4.69,4.69,0,0,1,1.08-1.87l.5-.5.71-.08c1.75-.18,3.58-.32,5.42-.42,1.25-.07,2.51-.11,3.76-.11.63,0,1.25,0,1.88,0a48,48,0,0,1,5.65.48,41.61,41.61,0,0,1,5.4,1.12l.63.17.41.51a9.41,9.41,0,0,1,1.57,3.51A37.81,37.81,0,0,1,67.62,22c.21,1.65.36,3.43.45,5.3s.14,3.7.16,5.49,0,3.52-.06,5.13-.12,3-.2,4.16l-.09,1.4-1.35.39a35.1,35.1,0,0,1-3.53.77c-1.35.24-2.83.44-4.4.61s-3.18.31-4.83.43-3.28.19-4.82.23C48.36,46,47.79,46,47.24,46Zm4-10.76h.43l1.6-.12c0-.49,0-2,0-2.3l-.76.1a6.39,6.39,0,0,0-1.46.37h0a4.05,4.05,0,0,0,0,.93,8.61,8.61,0,0,0,.12,1Z" transform="translate(-6.53 -3.86)"/><path d="M66,42c-.89.25-2,.49-3.32.72s-2.75.43-4.28.59-3.11.31-4.75.42-3.22.19-4.73.23-2.92,0-4.2,0a25.24,25.24,0,0,1-3.19-.32L40.38,42c-.42-.57-.82-1.16-1.22-1.77s-.76-1.21-1.09-1.8a12.14,12.14,0,0,1-.76-1.56A23,23,0,0,1,38,32a18.33,18.33,0,0,1,1.49-4.12,11.56,11.56,0,0,1,2.61-1.09c1.13-.34,2.39-.68,3.76-1s2.81-.63,4.31-.91,2.94-.54,4.32-.77c-.08-.3-.15-.65-.23-1.05A3.59,3.59,0,0,0,54,22.2a7.25,7.25,0,0,0-2.44-.8,26.75,26.75,0,0,0-3.42-.34c-1.23,0-2.49-.07-3.76-.06L41,21a19,19,0,0,1,0-2c.05-.7.14-1.37.25-2a14,14,0,0,1,.42-1.72,2.81,2.81,0,0,1,.59-1.09c1.73-.17,3.51-.31,5.33-.42s3.64-.12,5.48-.07a46.42,46.42,0,0,1,5.42.46,41.53,41.53,0,0,1,5.15,1.06A7.68,7.68,0,0,1,64.85,18a33.77,33.77,0,0,1,.78,4.26c.21,1.6.35,3.32.44,5.15s.14,3.63.16,5.4,0,3.46-.06,5.06S66.05,40.86,66,42ZM55.29,36.9c0-1.15,0-2.24-.06-3.28s0-2.12-.09-3.21c-1,.2-2,.36-2.92.48a8.73,8.73,0,0,0-2.81.86A3.77,3.77,0,0,0,49,32.91,6.2,6.2,0,0,0,49,34.28a13,13,0,0,0,.17,1.4,8.22,8.22,0,0,0,.33,1.22,5.17,5.17,0,0,0,2.33.29C52.74,37.12,53.92,37,55.29,36.9Z" transform="translate(-6.53 -3.86)"/><path d="M73.46,52.07c-.93,0-1.8,0-2.58-.08l-1.8-.13-.23-7.23c-.07-2-.12-4.13-.16-6.34s0-4.46,0-6.74,0-4.45,0-6.54.06-4.05.14-5.85.17-3.33.27-4.57l.12-1.35,1.29-.4a17.89,17.89,0,0,1,3-.53c1.23-.13,2.63-.23,4.15-.29s3.11-.11,4.76-.12h4.79c1.55,0,3,0,4.24.1s2.33.12,3.06.2l.76.08.51.57a23.38,23.38,0,0,1,2.6,3.44,24.22,24.22,0,0,1,1.81,3.55,29.31,29.31,0,0,1,1.25,3.81c.32,1.26.64,2.63,1,4.09l.07.32,0,.32a8.54,8.54,0,0,1-.85,2.57A26.07,26.07,0,0,1,100,33.81c-.62,1-1.29,1.92-2,2.83A16.68,16.68,0,0,1,95.81,39l-.32.29-.42.12c-1.13.35-2.34.67-3.59,1S89,41,87.7,41.18s-2.44.41-3.59.56l-1.26.16c0,.14.09,2.9.09,2.9,0,.83,0,1.66.06,2.47s0,1.68-.06,2.44l-.12,1.65-1.64.2c-.65.08-1.41.15-2.27.23s-1.75.15-2.66.2S74.38,52.07,73.46,52.07ZM83.77,23.73c-.1.84-.18,1.73-.24,2.65s-.09,1.88-.09,2.86c0,.25,0,.5,0,.74a9.23,9.23,0,0,0,1-.29A10.45,10.45,0,0,0,86.19,29a3.62,3.62,0,0,0,.54-.36,25.74,25.74,0,0,0-.39-3.16c-.2-1.05-.36-1.73-.49-2.16a4.31,4.31,0,0,0-1.07-.22,4.89,4.89,0,0,0-.54,0l-.39,0C83.82,23.26,83.8,23.49,83.77,23.73Z" transform="translate(-6.53 -3.86)"/><path d="M100.45,28.16a6.73,6.73,0,0,1-.67,1.94,22.4,22.4,0,0,1-1.47,2.64q-.87,1.36-1.89,2.67a14.54,14.54,0,0,1-1.93,2.1c-1.09.33-2.25.64-3.47.93s-2.44.55-3.66.77-2.4.4-3.52.55-2.12.26-3,.31c0,.71,0,1.48,0,2.31s0,1.65.07,2.48,0,1.64.06,2.44,0,1.56-.06,2.27c-.63.08-1.37.15-2.21.23s-1.71.14-2.6.19-1.78.08-2.67.08S71.75,50,71,50c0-1.6-.11-3.41-.17-5.42s-.12-4.11-.16-6.32,0-4.43,0-6.7,0-4.44,0-6.52.06-4,.14-5.79.16-3.26.27-4.48a15.42,15.42,0,0,1,2.67-.46c1.19-.13,2.54-.22,4-.29s3.06-.1,4.7-.11H87.2c1.53,0,2.92,0,4.18.09s2.24.12,2.92.2a21.94,21.94,0,0,1,2.39,3.14,22.84,22.84,0,0,1,1.66,3.27,25.44,25.44,0,0,1,1.16,3.55C99.83,25.4,100.14,26.73,100.45,28.16ZM88.77,29.38a28.89,28.89,0,0,0-.46-4.32,18.77,18.77,0,0,0-.73-2.93,2,2,0,0,0-1.06-.75A7,7,0,0,0,85,21.06a7.3,7.3,0,0,0-1.62,0A4.88,4.88,0,0,0,82,21.4c-.05.53-.13,1.23-.23,2.1s-.18,1.78-.25,2.75-.09,2-.09,3a25.92,25.92,0,0,0,.15,2.89,6,6,0,0,0,1.53-.06,11.78,11.78,0,0,0,2-.48,12.24,12.24,0,0,0,2-.89A5.33,5.33,0,0,0,88.77,29.38Z" transform="translate(-6.53 -3.86)"/><path d="M128.27,47.91c-.52-.61-1.05-1.26-1.6-1.94-.35-.43-.69-.87-1-1.33-1.34.07-2.68.11-4,.12h-4.71c-1.49,0-2.88,0-4.13-.1l-3.09-.11-.83,0-.56-.6a17.8,17.8,0,0,1-1.49-1.85,26.27,26.27,0,0,1-1.47-2.32c-.45-.79-.87-1.59-1.26-2.37s-.72-1.55-1-2.22l-.09-.24,0-.25c-.18-1.66-.32-3.41-.41-5.21s-.14-3.59-.15-5.37,0-3.53.08-5.23.14-3.24.25-4.67l0-.69.47-.52c.85-.91,1.72-2,2.6-3.1s1.94-2.42,2.94-3.51l.45-.48.65-.12c1.14-.21,2.47-.4,3.95-.54s3-.26,4.49-.35,3.08-.16,4.59-.2,2.92,0,4.21,0l3.28,0,2,0h.71l.56.45a14.86,14.86,0,0,1,1.93,2c.57.69,1.13,1.42,1.68,2.16s1.07,1.5,1.56,2.26,1,1.47,1.37,2.15l.22.35.06.41c.13.92.25,2,.35,3.25s.19,2.5.26,3.81.11,2.64.15,4,.06,2.63.06,3.84,0,2.28,0,3.24-.07,1.77-.12,2.38l-.05.55-.33.45c-.6.82-1.18,1.67-1.7,2.53l-.85,1.37.21.2c.45.44.83.82,1.13,1.15l1.06,1.16-.87,1.3a8.15,8.15,0,0,1-1.86,2,12.47,12.47,0,0,1-2.35,1.4,25,25,0,0,1-2.57,1,25.69,25.69,0,0,1-2.81.72l-1.17.24Zm-8.64-29.77c-.11.91-.2,1.85-.25,2.81-.09,1.4-.13,2.82-.13,4.25,0,.69,0,1.38,0,2.07a7.14,7.14,0,0,1,1.76-.72,26.59,26.59,0,0,1,2.83-.6l.38-.06c0-.9,0-1.81,0-2.71,0-1.23-.08-2.42-.15-3.54,0-.48-.07-.94-.13-1.38l-.28,0c-.62-.07-1.26-.12-1.92-.16l-.68,0c-.38,0-.76,0-1.14.05Z" transform="translate(-6.53 -3.86)"/><path d="M139.2,34.65q-1,1.29-1.8,2.67c-.56.91-1.13,1.82-1.72,2.71l1.4,1.33c.42.41.77.77,1,1.07a6,6,0,0,1-1.42,1.47,10,10,0,0,1-2,1.17,20.17,20.17,0,0,1-2.35.89,24.14,24.14,0,0,1-2.6.67l-1.58-1.92c-.55-.68-1.09-1.39-1.62-2.12-1.68.1-3.34.16-5,.17s-3.2,0-4.68,0-2.83,0-4.07-.1l-3.11-.11a16.44,16.44,0,0,1-1.31-1.64,24.53,24.53,0,0,1-1.36-2.14c-.43-.76-.83-1.52-1.2-2.27s-.67-1.43-.9-2c-.18-1.63-.31-3.33-.4-5.1s-.14-3.53-.15-5.29,0-3.47.07-5.13.15-3.2.25-4.6c.89-1,1.8-2.05,2.71-3.25s1.86-2.31,2.83-3.36q1.64-.3,3.78-.51c1.42-.14,2.89-.26,4.41-.34s3-.16,4.52-.2,2.89,0,4.16,0l3.3,0,2,0a12.59,12.59,0,0,1,1.66,1.68c.55.66,1.08,1.35,1.6,2.06s1,1.44,1.51,2.18.93,1.43,1.34,2.09c.12.9.24,1.94.34,3.14s.18,2.44.25,3.74.11,2.61.15,3.95.06,2.59.06,3.78,0,2.24,0,3.18S139.25,34.09,139.2,34.65Zm-13.06-4.09c0-1.17,0-2.38.08-3.64s0-2.52,0-3.78-.08-2.47-.16-3.63a24.72,24.72,0,0,0-.38-3.15,17.28,17.28,0,0,1-1.79-.11c-.66-.08-1.35-.14-2-.18a16.36,16.36,0,0,0-2.1,0,5.73,5.73,0,0,0-1.93.52c-.21,1.35-.35,2.75-.44,4.2s-.13,2.91-.13,4.37,0,2.92.07,4.39.12,2.88.19,4.25c.54.11,1.13.2,1.8.29a19,19,0,0,0,2,.17,23.46,23.46,0,0,1-1.24-2.55,13.17,13.17,0,0,1-.67-2.07,4.28,4.28,0,0,1,2.12-1.2,24.9,24.9,0,0,1,2.61-.55A18,18,0,0,0,126.14,30.56Z" transform="translate(-6.53 -3.86)"/><path d="M153,45c-1.88,0-3.65-.07-5.26-.2l-.73-.06-.52-.52a14.4,14.4,0,0,1-1.23-1.43c-.43-.55-.86-1.15-1.28-1.77s-.82-1.28-1.17-1.92a12.73,12.73,0,0,1-.84-1.82l-.11-.32v-.34c0-.75,0-1.69,0-2.82s0-2.38-.07-3.71L141.7,26c0-1.41,0-2.77,0-4.07s0-2.39.08-3.24a22.42,22.42,0,0,1,.23-2.42l.24-1.48,1.49-.19c1.89-.23,3.75-.37,5.53-.41H150a42.19,42.19,0,0,1,5,.31l1.91.22-.15,1.92c-.15,1.93-.25,3.63-.3,5s-.07,2.92-.06,4.45.06,3,.14,4.42c0,.93.1,1.86.16,2.79h0a8.27,8.27,0,0,0,1.11.07l.56,0a6.21,6.21,0,0,0,1.44-.26l.16-.06c0-1.11,0-2.26,0-3.43,0-1.61,0-3.23,0-4.85s0-3.09,0-4.4,0-2.66,0-4l0-1.62,1.58-.31a30.78,30.78,0,0,1,5.86-.57c1.8,0,3.67,0,5.54-.07l2.09-.06,0,2.09c0,1.59-.07,3.19-.12,4.82s-.09,3.35-.11,5.23,0,3.71,0,5.47,0,3.32.07,4.68l0,.36-.12.35a10.3,10.3,0,0,1-.87,1.88c-.34.58-.74,1.2-1.18,1.83s-.88,1.22-1.33,1.8-.89,1.09-1.29,1.55l-.58.66-.88,0c-1.28,0-2.78.07-4.49.15s-3.55.15-5.43.21S154.88,45,153,45Z" transform="translate(-6.53 -3.86)"/><path d="M173,15.86q0,2.37-.12,4.8c-.05,1.61-.09,3.37-.11,5.26s0,3.73,0,5.5,0,3.35.08,4.75a8.7,8.7,0,0,1-.71,1.51c-.32.55-.68,1.11-1.09,1.7s-.83,1.15-1.26,1.7-.84,1-1.22,1.47c-1.3,0-2.81.07-4.54.15s-3.53.15-5.4.21-3.73.1-5.58.1-3.54-.07-5.09-.19a12,12,0,0,1-1.07-1.25c-.41-.52-.81-1.07-1.2-1.66a18.27,18.27,0,0,1-1.07-1.75,10.83,10.83,0,0,1-.71-1.53c0-.76,0-1.72,0-2.86s0-2.38-.07-3.7-.06-2.68-.08-4.07,0-2.72,0-4,0-2.34.08-3.17a16.46,16.46,0,0,1,.21-2.19,52.37,52.37,0,0,1,5.32-.4,39.55,39.55,0,0,1,5.52.28c-.16,2-.26,3.68-.31,5.14s-.07,3-.06,4.54.06,3.07.14,4.51.16,2.86.27,4.29a6.33,6.33,0,0,0,1.68.38,11.09,11.09,0,0,0,2,.06,8,8,0,0,0,1.95-.36,4.67,4.67,0,0,0,1.54-.81c0-1.47,0-3,0-4.61s0-3.22,0-4.83,0-3.08,0-4.39,0-2.63,0-3.95a28.25,28.25,0,0,1,5.47-.54C169.24,15.94,171.11,15.92,173,15.86Z" transform="translate(-6.53 -3.86)"/><path d="M185.89,46c-.93,0-1.81,0-2.65-.06a27.26,27.26,0,0,1-3.44-.35l-.8-.15-1.58-2.18c-.44-.6-.88-1.23-1.29-1.88s-.8-1.27-1.15-1.89a15.05,15.05,0,0,1-.89-1.83l-.15-.38,0-.4a25,25,0,0,1,.74-5.35,21,21,0,0,1,1.66-4.57l.25-.48.46-.28a13,13,0,0,1,3.1-1.31c1.16-.35,2.46-.7,3.87-1,1.05-.26,2.16-.5,3.29-.72l-.6,0c-1,0-1.94-.05-2.93-.05h-.73l-3.45,0H177.7l-.08-1.92a20.41,20.41,0,0,1,0-2.19c.06-.76.15-1.51.28-2.23a13.31,13.31,0,0,1,.49-2,4.8,4.8,0,0,1,1.07-1.87l.51-.5.7-.08c1.76-.18,3.58-.32,5.42-.42,1.25-.07,2.52-.11,3.77-.11l1.88,0a48,48,0,0,1,5.64.48,42.12,42.12,0,0,1,5.41,1.12l.63.17.4.51a9.25,9.25,0,0,1,1.57,3.51,35.91,35.91,0,0,1,.83,4.51c.21,1.65.37,3.43.46,5.3s.14,3.7.15,5.49,0,3.52-.06,5.13-.11,3-.19,4.16l-.1,1.4-1.35.39a34.49,34.49,0,0,1-3.53.77c-1.35.24-2.83.44-4.4.61s-3.17.31-4.83.43-3.28.19-4.82.23C187,46,186.44,46,185.89,46Zm4-10.76h.42l1.61-.12c0-.49,0-2,0-2.3l-.75.1a6.14,6.14,0,0,0-1.46.37h0a4.05,4.05,0,0,0-.05.93,5.8,5.8,0,0,0,.12,1Z" transform="translate(-6.53 -3.86)"/><path d="M204.62,42a33.82,33.82,0,0,1-3.32.72c-1.32.23-2.75.43-4.27.59s-3.11.31-4.76.42-3.22.19-4.73.23-2.91,0-4.2,0a25.44,25.44,0,0,1-3.19-.32L179,42c-.42-.57-.83-1.16-1.22-1.77s-.76-1.21-1.09-1.8A11,11,0,0,1,176,36.9a23,23,0,0,1,.68-4.93,19.36,19.36,0,0,1,1.49-4.12,11.47,11.47,0,0,1,2.62-1.09c1.13-.34,2.38-.68,3.76-1s2.81-.63,4.31-.91,2.94-.54,4.31-.77c-.07-.3-.15-.65-.23-1.05a3.71,3.71,0,0,0-.22-.82,7.24,7.24,0,0,0-2.45-.8,26.4,26.4,0,0,0-3.41-.34c-1.24,0-2.49-.07-3.76-.06l-3.44,0a16.55,16.55,0,0,1,0-2,18.27,18.27,0,0,1,.25-2,11.11,11.11,0,0,1,.42-1.72,2.69,2.69,0,0,1,.59-1.09c1.73-.17,3.5-.31,5.32-.42s3.65-.12,5.48-.07a46.24,46.24,0,0,1,5.42.46,42.07,42.07,0,0,1,5.16,1.06A7.68,7.68,0,0,1,203.5,18a33.77,33.77,0,0,1,.78,4.26c.2,1.6.35,3.32.44,5.15s.14,3.63.15,5.4,0,3.46-.06,5.06S204.7,40.86,204.62,42ZM193.94,36.9c0-1.15-.05-2.24-.06-3.28s0-2.12-.1-3.21c-1,.2-2,.36-2.92.48a8.68,8.68,0,0,0-2.8.86,3.77,3.77,0,0,0-.39,1.16,6.2,6.2,0,0,0-.07,1.37,9.39,9.39,0,0,0,.17,1.4,9.73,9.73,0,0,0,.32,1.22,5.21,5.21,0,0,0,2.33.29C191.39,37.12,192.56,37,193.94,36.9Z" transform="translate(-6.53 -3.86)"/><path d="M225.68,44.58c-.83-1.06-1.63-2.13-2.37-3.18s-1.43-2-2-2.9l-.06-.1c0,.72,0,1.45,0,2.18s-.05,1.59-.11,2.25L221,44l-1,.5a7.73,7.73,0,0,1-2.66.62c-1,.11-2.08.19-3.19.26s-2.22.1-3.23.1a10.73,10.73,0,0,1-2.56-.22L207,44.87l-.13-1.42c-.1-1.19-.18-2.81-.24-4.84s-.07-4.25-.05-6.67,0-4.88.07-7.42.09-4.92.14-7.16.1-4.19.15-5.89.09-2.89.12-3.58l0-1.58L208.62,6a17.21,17.21,0,0,1,2.84-.27l2.15,0h1.06c1.08,0,2.05,0,2.93.08l1.81.1,1.94.17L221.24,8c0,.42-.05,1-.07,1.85s0,1.78-.06,2.83,0,2.18,0,3.34,0,2.27,0,3.33c0,.43,0,.84,0,1.24.48-.66,1-1.36,1.47-2.09l1.89-2.72,1.57-2.3.58-.84,1,0h.56c.67,0,1.37,0,2.1.11.9.1,1.82.22,2.73.38s1.81.34,2.72.53l5.4,1.18-1.62,2.44c-.35.52-.85,1.32-1.51,2.38l-2.18,3.52q-1.15,1.86-2.32,3.78c-.53.89-1,1.7-1.44,2.45a22.45,22.45,0,0,0,1.21,2.22c.62,1,1.28,2,1.94,3l2.06,3a30.44,30.44,0,0,1,2,3.36L240.37,43l-2.21.74a21.81,21.81,0,0,1-2.59.66c-1,.2-2,.36-3.08.48s-2,.21-2.9.29l-2.14.19-1.09.11Z" transform="translate(-6.53 -3.86)"/><path d="M237.87,16.13c-.35.54-.87,1.35-1.54,2.45l-2.18,3.51c-.78,1.24-1.55,2.51-2.33,3.8s-1.43,2.41-2,3.37a24.94,24.94,0,0,0,1.73,3.38c.65,1.06,1.32,2.08,2,3.08l2.06,3a28.12,28.12,0,0,1,1.87,3.13,18.52,18.52,0,0,1-2.35.59c-1,.2-1.93.35-2.92.46s-1.94.21-2.84.29l-2.16.19c-.81-1-1.59-2.08-2.33-3.11s-1.4-2-2-2.86-1.12-1.66-1.57-2.33a11.12,11.12,0,0,0-1.09-1.47,1.19,1.19,0,0,0-.57-.19.59.59,0,0,0-.36.11c-.11.08-.17.27-.17.57,0,.49,0,1.09,0,1.82s0,1.48,0,2.27,0,1.58,0,2.38-.05,1.51-.1,2.12a6.48,6.48,0,0,1-2,.42c-1,.1-2,.19-3.1.25s-2.13.1-3.11.1a9.11,9.11,0,0,1-2.08-.16c-.1-1.14-.18-2.71-.23-4.71s-.07-4.2-.05-6.6,0-4.88.07-7.41.09-4.91.14-7.14.1-4.18.15-5.88S209,8.65,209,8a16.57,16.57,0,0,1,2.5-.23c1,0,2.08,0,3.13,0s2,0,2.87.08,1.43.07,1.73.1c0,.43-.05,1.07-.07,1.91s0,1.79-.06,2.86,0,2.19,0,3.36,0,2.29,0,3.36,0,2.05.1,2.94.11,1.57.19,2.06a.54.54,0,0,0,.51.53c.29,0,.66-.21,1.09-.72l1.41-2c.59-.81,1.2-1.68,1.84-2.6l1.88-2.73q.94-1.35,1.59-2.31a18,18,0,0,1,2.38.1c.86.09,1.72.21,2.6.36s1.76.33,2.63.52Z" transform="translate(-6.53 -3.86)"/><path d="M265.43,45.69c-1.78,0-3.75-.06-5.85-.19s-4.22-.33-6.34-.58-4.27-.62-6.32-1.07a52.89,52.89,0,0,1-5.75-1.54l-.54-.18-.37-.45a8.12,8.12,0,0,1-1.53-3.41,24.63,24.63,0,0,1-.56-4.24,41.23,41.23,0,0,1,0-4.83,42.72,42.72,0,0,1,.58-4.92,35.32,35.32,0,0,1,1.07-4.47,13.82,13.82,0,0,1,1.66-3.65l.28-.41.43-.23a15,15,0,0,1,3.42-1.21c1.37-.35,2.9-.66,4.57-.92s3.37-.48,5.15-.68,3.49-.33,5.06-.41c1-.05,1.85-.07,2.67-.07.56,0,1.08,0,1.58,0a9.82,9.82,0,0,1,3.08.49l.63.26.34.6a20.17,20.17,0,0,1,1.7,3.89,34.3,34.3,0,0,1,1.11,4.44,45.75,45.75,0,0,1,.62,4.69,42,42,0,0,1,.12,4.73L272.22,33l-1.63.25c-.85.14-2,.28-3.5.44s-3.1.3-4.81.42l-2.8.19.59.06,2.95.27c1,.08,1.78.15,2.5.23a7.56,7.56,0,0,1,2,.4l1.2.47.06,1.29a16.75,16.75,0,0,1,0,2.09,21,21,0,0,1-.28,2.22,14.76,14.76,0,0,1-.48,2,3.8,3.8,0,0,1-1.38,2l-.51.33Zm-11-20.85q.57-.06,1.11-.15l1.54-.27c0-.17,0-.33,0-.5a1.37,1.37,0,0,0,0-.19c-.26,0-.52,0-.8.08s-.74.11-1.15.19l-.39.11C254.63,24.36,254.55,24.61,254.47,24.84Z" transform="translate(-6.53 -3.86)"/><path d="M270.28,31.29c-.81.12-1.94.26-3.4.42s-3,.29-4.75.42-3.48.24-5.3.34-3.5.18-5,.23A7.45,7.45,0,0,0,252,34a3.44,3.44,0,0,0,.42,1,6.42,6.42,0,0,0,1.75.63,22,22,0,0,0,2.63.46c1,.11,2,.22,3,.32s2.05.2,3,.27,1.74.15,2.44.23a6.52,6.52,0,0,1,1.43.27,14.9,14.9,0,0,1,0,1.85,19.92,19.92,0,0,1-.24,2A15,15,0,0,1,266,42.7a1.86,1.86,0,0,1-.6,1c-1.75,0-3.66-.06-5.72-.19s-4.14-.32-6.22-.57-4.14-.6-6.15-1a51.9,51.9,0,0,1-5.54-1.49,6.38,6.38,0,0,1-1.12-2.6,22.36,22.36,0,0,1-.52-3.89,41.86,41.86,0,0,1,0-4.6,43.6,43.6,0,0,1,.55-4.69,33.46,33.46,0,0,1,1-4.22,11.62,11.62,0,0,1,1.41-3.13,13.3,13.3,0,0,1,3-1c1.31-.33,2.77-.63,4.39-.88s3.3-.48,5.05-.67,3.41-.32,4.95-.4,2.89-.09,4.06,0a8.5,8.5,0,0,1,2.41.34,19.5,19.5,0,0,1,1.53,3.52,32.32,32.32,0,0,1,1.05,4.18c.26,1.46.46,3,.59,4.5A40.11,40.11,0,0,1,270.28,31.29ZM259.1,26a15.45,15.45,0,0,0,0-2.25,5.35,5.35,0,0,0-.59-2.1l-1.24,0c-.4,0-.81.05-1.23.1s-.86.13-1.33.23a9,9,0,0,0-1.59.53c-.22.74-.44,1.4-.64,2a11.32,11.32,0,0,0-.5,2.35,20.19,20.19,0,0,0,3.95-.23C257.14,26.46,258.21,26.25,259.1,26Z" transform="translate(-6.53 -3.86)"/><path d="M315.45,45.24c-2,0-4.09-.08-6.23-.16s-4.41-.23-6.63-.45a66.4,66.4,0,0,1-6.64-1,41.08,41.08,0,0,1-6.3-1.81l-.56-.21-.35-.48a10.39,10.39,0,0,1-1.58-4,34.47,34.47,0,0,1-.61-5.17,56.81,56.81,0,0,1,0-6c.12-2.08.33-4.12.63-6.07a44.38,44.38,0,0,1,1.2-5.52A20.07,20.07,0,0,1,290.19,10l.27-.46.46-.27a16.12,16.12,0,0,1,3.55-1.43c1.39-.41,2.95-.78,4.65-1.11s3.42-.62,5.21-.86,3.52-.42,5.12-.51c1.12-.07,2.16-.1,3.1-.1l1.18,0a7.85,7.85,0,0,1,3.37.67l.89.47.15,1c.06.36.11.85.17,1.46s.1,1.27.12,2,0,1.58,0,2.44a25,25,0,0,1-.27,2.66l-.23,1.58-1.59.12c-1.34.1-2.59.18-3.77.25s-2.23.14-3.28.22a25.89,25.89,0,0,0-2.86.42,13.8,13.8,0,0,0-1.75.52c-.19.82-.37,1.73-.56,2.72-.25,1.38-.44,2.79-.56,4.2a25.05,25.05,0,0,0-.06,3.85,8.17,8.17,0,0,0,.32,1.84,6.24,6.24,0,0,0,.73.2,19.83,19.83,0,0,0,2.46.36c1,.09,2,.16,3,.21s2.05.09,3,.11,1.86.08,2.61.14a6.28,6.28,0,0,1,2.24.53l1.06.53.05,1.18a21.9,21.9,0,0,1-.06,2.49c-.07.92-.16,1.82-.28,2.66a17.19,17.19,0,0,1-.53,2.45,4.23,4.23,0,0,1-1.33,2.24l-.56.45Z" transform="translate(-6.53 -3.86)"/><path d="M316.93,35a18.3,18.3,0,0,1-.06,2.27c-.06.88-.15,1.72-.26,2.52a16,16,0,0,1-.46,2.16,2.68,2.68,0,0,1-.67,1.26q-2.94,0-6.19-.16t-6.5-.44a62.47,62.47,0,0,1-6.44-1,37.88,37.88,0,0,1-6-1.72,8.53,8.53,0,0,1-1.24-3.26,33.12,33.12,0,0,1-.57-4.87,52.67,52.67,0,0,1,0-5.74,57.29,57.29,0,0,1,.61-5.88,41.21,41.21,0,0,1,1.14-5.27A17.94,17.94,0,0,1,291.93,11,14,14,0,0,1,295,9.74c1.33-.4,2.82-.75,4.46-1.07s3.34-.6,5.1-.84,3.41-.41,5-.5,2.92-.11,4.11-.07a6.05,6.05,0,0,1,2.5.44c.05.33.1.77.15,1.33s.09,1.2.11,1.91,0,1.47,0,2.27a23.78,23.78,0,0,1-.24,2.46c-1.33.11-2.57.19-3.73.25s-2.27.14-3.34.23a24.26,24.26,0,0,0-3.11.46,15.4,15.4,0,0,0-3,1c-.28,1.1-.56,2.37-.82,3.82a42.87,42.87,0,0,0-.59,4.39,26.54,26.54,0,0,0-.06,4.16,8.23,8.23,0,0,0,.74,3.13,5.25,5.25,0,0,0,1.87.72,21.87,21.87,0,0,0,2.71.41c1,.08,2,.15,3.1.21s2.07.08,3,.11,1.77.07,2.48.13A4.82,4.82,0,0,1,316.93,35Z" transform="translate(-6.53 -3.86)"/><path d="M335.35,45.43c-2.05,0-4.1,0-6.09-.12s-3.84-.21-5.39-.39l-.69-.09-.49-.48a14.88,14.88,0,0,1-1.28-1.53c-.42-.57-.84-1.19-1.25-1.85S319.37,39.68,319,39a16.21,16.21,0,0,1-.87-1.84l-.13-.33v-.35c0-1.18,0-2.5,0-4V28.25c0-1.45,0-2.87.06-4.23s.08-2.57.14-3.6l0-.77.55-.54c.29-.29.66-.69,1.12-1.19s1-1.1,1.54-1.66,1.06-1.09,1.56-1.58a9,9,0,0,1,1.57-1.28l.42-.26.49,0c1.16-.08,2.56-.19,4.18-.33s3.42-.25,5.2-.33c1.35,0,2.7-.08,4-.08h1.32a28.54,28.54,0,0,1,4.91.45l.48.09.38.31a17.65,17.65,0,0,1,3.17,3.35c.91,1.23,1.75,2.41,2.5,3.49l.31.45,0,.54c.08,1.06.15,2.38.22,3.94s.1,3.13.13,4.73,0,3.07,0,4.42a22.47,22.47,0,0,1-.2,3.25l-.08.53-.33.42c-.7.86-1.4,1.78-2.09,2.75s-1.55,2-2.4,3l-.46.51-.67.12a38.1,38.1,0,0,1-4.86.53C339.38,45.37,337.39,45.43,335.35,45.43Zm-2-10.77q.39,0,.78,0a7.66,7.66,0,0,0,.95,0,6.57,6.57,0,0,0,1.56-.35l.23-.09c0-1.6.08-3.35.12-5.23a45.67,45.67,0,0,0-.17-5.06h-.06c-.54,0-1.07,0-1.57.08s-.94.12-1.39.21l-.35.09v.06c-.06.62-.1,1.35-.14,2.18s-.06,1.76-.06,2.72v2.87c0,.89,0,1.68,0,2.37a.76.76,0,0,0,0,.15Z" transform="translate(-6.53 -3.86)"/><path d="M350.18,37.09c-.74.92-1.46,1.86-2.16,2.84a35.88,35.88,0,0,1-2.27,2.85,36.07,36.07,0,0,1-4.6.49c-1.85.11-3.78.16-5.8.16s-4,0-6-.12-3.73-.2-5.23-.38a9.88,9.88,0,0,1-1.09-1.3c-.4-.53-.78-1.11-1.17-1.72s-.73-1.22-1.07-1.83a14.61,14.61,0,0,1-.76-1.6c0-1.17,0-2.48,0-3.91V28.25c0-1.44,0-2.83.06-4.18s.08-2.53.13-3.55c.31-.3.7-.72,1.19-1.26s1-1.07,1.51-1.62,1-1.06,1.5-1.53a8.37,8.37,0,0,1,1.22-1c1.17-.08,2.58-.18,4.22-.32s3.35-.25,5.12-.33,3.51-.1,5.23-.07a25.31,25.31,0,0,1,4.56.42,15.51,15.51,0,0,1,2.81,3c.9,1.23,1.72,2.37,2.46,3.44q.11,1.56.21,3.87c.06,1.54.11,3.1.13,4.68s0,3,0,4.37A21.87,21.87,0,0,1,350.18,37.09Zm-11.34-1.72q.07-2.86.15-6.35a48.51,48.51,0,0,0-.38-7.16l-1.89.06c-.6,0-1.17,0-1.72.09a13,13,0,0,0-1.62.25,8.11,8.11,0,0,0-1.64.55,4.45,4.45,0,0,0-.29,1.36c-.06.65-.11,1.41-.15,2.29s-.06,1.81-.06,2.8v2.87c0,.91,0,1.73,0,2.44s0,1.25,0,1.6a5.24,5.24,0,0,0,1.85.48,10.74,10.74,0,0,0,2.12,0,8.26,8.26,0,0,0,2-.46A5.19,5.19,0,0,0,338.84,35.37Z" transform="translate(-6.53 -3.86)"/><path d="M357.64,45.75c-1.36,0-2.83-.07-4.37-.22l-1.77-.17,0-1.78c0-1.26,0-2.79,0-4.54s.08-3.54.16-5.45.16-3.78.26-5.69.21-3.7.31-5.36.21-3.15.31-4.43.2-2.26.28-2.86L353,14l1.22-.38A19.77,19.77,0,0,1,356.7,13c.89-.16,1.83-.3,2.8-.42s1.91-.22,2.86-.29l2.57-.2c.81,0,1.51-.08,2.08-.08a7,7,0,0,1,1.39.08l1.1.22.38,1.06c.6,1.63,1.16,3.28,1.66,4.9a28,28,0,0,0,1,2.74l.22-.46c.32-.67.66-1.4,1-2.16s.69-1.51,1-2.22.6-1.36.84-1.92l.49-1.17.38-.94,1-.25a17,17,0,0,1,3.16-.45c1.19-.07,2.47-.12,3.79-.13h.64c1.1,0,2.2,0,3.26.09,1.3.06,2.4.17,3.28.3l1.6.25.09,1.62c.25,4.83.46,9.7.63,14.47s.4,9.62.7,14.61l.09,1.37-1.26.57a9.83,9.83,0,0,1-2.62.68c-.93.12-1.94.19-3,.22h-.9c-.75,0-1.53,0-2.31-.07L380,45.17l-.13-1.74c0-.34-.06-.89-.1-1.64s-.09-1.5-.15-2.36-.12-1.82-.18-2.79c0-.34,0-.67-.05-1l-.62,1.26c-.53,1.09-1.08,2.22-1.63,3.38s-1.12,2.31-1.66,3.39L375,44.78h-1.24c-.65,0-1.28,0-1.91,0h-.25a13.61,13.61,0,0,1-2-.16l-.89-.15-.49-.76c-.64-1-1.25-2.1-1.81-3.2s-1.05-2.12-1.52-3.14c-.14-.3-.28-.61-.41-.91l0,.67c0,.92-.07,1.8-.09,2.62s-.05,1.55-.06,2.2,0,1.11,0,1.38V45l-1.65.29a28.25,28.25,0,0,1-4.61.43Z" transform="translate(-6.53 -3.86)"/><path d="M392.63,42.78a7.43,7.43,0,0,1-2.06.51,24,24,0,0,1-2.79.21c-1,0-2,0-3,0l-2.84-.18c0-.33-.06-.86-.09-1.58s-.09-1.53-.16-2.41-.12-1.79-.17-2.74-.11-1.84-.17-2.64-.12-1.49-.15-2.06a6.55,6.55,0,0,0-.1-1c-.18-.54-.43-.77-.74-.71a1,1,0,0,0-.71.59L378.5,33,377,36l-1.64,3.4c-.56,1.17-1.1,2.29-1.64,3.36-.66,0-1.31,0-2,0a11,11,0,0,1-1.9-.14c-.61-1-1.19-2-1.72-3s-1-2.08-1.49-3.07-.87-2-1.24-2.85l-1-2.35a1,1,0,0,0-.65-.55.65.65,0,0,0-.77.36,4.33,4.33,0,0,0-.28,1.19c-.09.61-.16,1.31-.21,2.11s-.1,1.67-.14,2.6-.07,1.81-.09,2.63-.05,1.58-.06,2.24,0,1.13,0,1.41a26.21,26.21,0,0,1-4.27.4,45.12,45.12,0,0,1-4.51-.21c0-1.25,0-2.73,0-4.47s.08-3.53.15-5.4.17-3.76.27-5.67.2-3.69.31-5.34.2-3.12.3-4.39.19-2.19.27-2.75a19.12,19.12,0,0,1,2.29-.53c.86-.16,1.76-.29,2.69-.4s1.86-.21,2.79-.29,1.77-.14,2.54-.19S366.48,14,367,14a8.33,8.33,0,0,1,1,0c.58,1.6,1.12,3.21,1.62,4.81a28.29,28.29,0,0,0,1.85,4.58,1.2,1.2,0,0,0,.69.67.93.93,0,0,0,.95-.1,3.06,3.06,0,0,0,.57-.85c.26-.48.55-1.05.88-1.74s.68-1.42,1-2.2.69-1.52,1-2.25.6-1.37.84-1.93.42-1,.52-1.22a15.78,15.78,0,0,1,2.79-.38c1.17-.08,2.39-.12,3.68-.13s2.54,0,3.78.07,2.26.16,3.07.29q.39,7.24.63,14.43T392.63,42.78Z" transform="translate(-6.53 -3.86)"/><path d="M405.23,45.42h-1.45a31.49,31.49,0,0,1-6.81-.8l-1.34-.32-.18-1.36c-.11-.85-.18-2.06-.22-3.69s-.07-3.35-.08-5.36,0-4.15,0-6.5l.11-6.91c0-2.31.08-4.53.14-6.68s.09-4,.11-5.7l0-1.45L397,6.21c.87-.27,1.84-.53,2.88-.75s2.1-.42,3.13-.55,2-.23,3-.3c.55,0,1-.05,1.52-.05s.75,0,1.08,0l1.93.15-.2,4.45c-.05,1.08-.09,2.2-.12,3.35s0,2,0,2.89l2.74-.18c1.06-.06,2.12-.11,3.19-.14l2.76,0h.36l.35.13A10.28,10.28,0,0,1,422.4,17a24.27,24.27,0,0,1,2.67,2.62,32.38,32.38,0,0,1,2.38,3.08,20.78,20.78,0,0,1,1.81,3.13l.22.49-.05.54c-.1,1.09-.27,2.43-.49,4s-.49,3.12-.8,4.61A38.14,38.14,0,0,1,427,39.66a7.33,7.33,0,0,1-1.85,3.28l-.4.35-.52.11-2.43.48c-1,.2-2.14.38-3.33.55s-2.37.33-3.62.49-2.5.26-3.65.31C409.2,45.36,407.17,45.42,405.23,45.42Zm5-18.19c0,.43,0,.88-.07,1.34,0,1-.05,2,0,3s0,1.85.09,2.67v.19l.82-.07a8.1,8.1,0,0,0,1.15-.2l.28-.08a3.3,3.3,0,0,0,.14-.53,19.13,19.13,0,0,0,.35-2.29c.08-.85.13-1.73.14-2.61,0-.43,0-.84,0-1.23a8.89,8.89,0,0,0-1.25-.19l-.74,0C410.81,27.18,410.51,27.2,410.21,27.23Z" transform="translate(-6.53 -3.86)"/><path d="M427.44,26.67c-.1,1.07-.26,2.36-.48,3.89s-.47,3-.78,4.49a34.81,34.81,0,0,1-1.05,4,5.65,5.65,0,0,1-1.28,2.4l-2.4.48c-1,.19-2.07.37-3.23.53s-2.35.33-3.59.48-2.4.25-3.49.31c-2.54.15-5,.21-7.33.17a29.29,29.29,0,0,1-6.37-.75,30.7,30.7,0,0,1-.21-3.47c0-1.55-.07-3.33-.08-5.33s0-4.14,0-6.45.07-4.6.11-6.91.08-4.52.14-6.66.09-4,.11-5.72c.82-.26,1.72-.49,2.71-.71s2-.39,3-.52,1.92-.22,2.82-.28a15,15,0,0,1,2.31,0c0,.58-.06,1.42-.11,2.52s-.09,2.23-.12,3.4,0,2.24,0,3.2,0,1.63,0,2a13.48,13.48,0,0,1,2-.25l2.86-.19c1-.07,2.07-.11,3.12-.14l2.71,0a8.39,8.39,0,0,1,2.34,1.45,22,22,0,0,1,2.45,2.4,32.55,32.55,0,0,1,2.23,2.88A19.69,19.69,0,0,1,427.44,26.67Zm-12.37-.57a3.08,3.08,0,0,0-1.22-.58,10.07,10.07,0,0,0-1.85-.3,11,11,0,0,0-2,0,6.19,6.19,0,0,0-1.66.36c-.1.89-.17,1.86-.21,2.9s-.05,2.07,0,3.07,0,1.93.09,2.77.12,1.5.19,2a4.81,4.81,0,0,0,1.38.11c.48,0,1-.06,1.47-.11a10.94,10.94,0,0,0,1.43-.25c.46-.12.86-.24,1.22-.36a5.18,5.18,0,0,0,.67-1.76,23.23,23.23,0,0,0,.38-2.52q.13-1.38.15-2.79C415.1,27.71,415.1,26.86,415.07,26.1Z" transform="translate(-6.53 -3.86)"/><path d="M445.78,45.43c-2,0-4.09,0-6.09-.12s-3.83-.21-5.38-.39l-.69-.09-.49-.48a13.69,13.69,0,0,1-1.29-1.53c-.42-.57-.84-1.19-1.25-1.85s-.78-1.29-1.13-1.93a16.21,16.21,0,0,1-.87-1.84l-.12-.33v-.35c0-1.18,0-2.5,0-4V28.25c0-1.45,0-2.87.06-4.23s.08-2.57.13-3.6l0-.77.55-.54c.28-.29.65-.69,1.11-1.19s1-1.1,1.54-1.66,1.06-1.09,1.56-1.58A9.41,9.41,0,0,1,435,13.4l.43-.26.49,0c1.16-.08,2.55-.19,4.18-.33s3.42-.25,5.2-.33c1.34,0,2.7-.08,4-.08h1.31a28.35,28.35,0,0,1,4.91.45l.48.09.38.31a17.38,17.38,0,0,1,3.18,3.35c.91,1.23,1.75,2.41,2.5,3.49l.31.45,0,.54c.08,1.06.15,2.38.21,3.94s.11,3.13.14,4.73,0,3.07,0,4.42a24,24,0,0,1-.2,3.25l-.08.53-.34.42c-.69.86-1.4,1.78-2.09,2.75a37.67,37.67,0,0,1-2.4,3l-.45.51-.68.12a37.92,37.92,0,0,1-4.85.53C449.82,45.37,447.83,45.43,445.78,45.43Zm-2-10.77c.26,0,.51,0,.77,0a7.46,7.46,0,0,0,.95,0,6.46,6.46,0,0,0,1.56-.35l.24-.09c0-1.6.08-3.35.12-5.23a45.72,45.72,0,0,0-.18-5.06h-.05c-.55,0-1.07,0-1.58.08s-.93.12-1.38.21l-.35.09v.06c-.06.62-.11,1.35-.14,2.18s-.06,1.76-.06,2.72v2.87c0,.89,0,1.68,0,2.37v.15Z" transform="translate(-6.53 -3.86)"/><path d="M460.61,37.09c-.73.92-1.45,1.86-2.15,2.84a35.88,35.88,0,0,1-2.27,2.85,36.49,36.49,0,0,1-4.6.49c-1.85.11-3.78.16-5.81.16s-4,0-6-.12-3.73-.2-5.23-.38a11.72,11.72,0,0,1-1.09-1.3c-.39-.53-.78-1.11-1.16-1.72s-.74-1.22-1.07-1.83a13,13,0,0,1-.76-1.6c0-1.17,0-2.48,0-3.91V28.25c0-1.44,0-2.83.06-4.18s.08-2.53.13-3.55c.31-.3.7-.72,1.18-1.26l1.51-1.62c.52-.55,1-1.06,1.51-1.53a7.87,7.87,0,0,1,1.22-1c1.17-.08,2.58-.18,4.22-.32s3.34-.25,5.11-.33,3.52-.1,5.23-.07a25.52,25.52,0,0,1,4.57.42,15.48,15.48,0,0,1,2.8,3c.9,1.23,1.72,2.37,2.46,3.44q.12,1.56.21,3.87c.07,1.54.11,3.1.14,4.68s0,3,0,4.37A23.25,23.25,0,0,1,460.61,37.09Zm-11.33-1.72q.08-2.86.15-6.35a49.92,49.92,0,0,0-.38-7.16l-1.89.06c-.6,0-1.17,0-1.72.09a12.41,12.41,0,0,0-1.62.25,7.91,7.91,0,0,0-1.64.55,4.16,4.16,0,0,0-.29,1.36c-.06.65-.11,1.41-.15,2.29s-.06,1.81-.06,2.8v2.87c0,.91,0,1.73,0,2.44s0,1.25,0,1.6a5.19,5.19,0,0,0,1.85.48,10.74,10.74,0,0,0,2.12,0,8.37,8.37,0,0,0,2-.46A5.46,5.46,0,0,0,449.28,35.37Z" transform="translate(-6.53 -3.86)"/><path d="M465.29,46.36A3.61,3.61,0,0,1,463.74,44a19.08,19.08,0,0,1-.45-2.32c-.11-.78-.19-1.56-.24-2.32a11.81,11.81,0,0,1,0-1.81l.15-1.68,1.69-.13c.95-.08,2-.17,3.15-.29s2.19-.25,3.23-.43,1.94-.37,2.79-.58l-.94-.15c-.8-.13-1.66-.24-2.57-.34s-1.9-.22-2.8-.35-1.8-.3-2.59-.49a8,8,0,0,1-2.35-.95l-.85-.56-.06-1a31.4,31.4,0,0,1,.51-7.47A27,27,0,0,1,464.79,16l.36-.72.78-.27a51,51,0,0,1,5.38-1.49c1.85-.4,3.74-.73,5.62-1s3.76-.4,5.63-.49c1.19-.06,2.37-.09,3.53-.09.67,0,1.33,0,2,0l1.4,0,.44,1.33a15.2,15.2,0,0,1,.71,3.76c.08,1.23.11,2.4.08,3.48l0,1.69L489,22.5c-2,.29-4,.52-6,.68-1.56.14-3.15.33-4.73.57a1.69,1.69,0,0,0-.08.39.36.36,0,0,0,0,.11c1.49.26,3,.5,4.45.73L490,26.11l.45,1a11.1,11.1,0,0,1,1,3.45,16.27,16.27,0,0,1,0,3.56,16.81,16.81,0,0,1-.71,3.51,15,15,0,0,1-1.39,3.14l-.32.53-.55.26a39.5,39.5,0,0,1-5.39,2.06c-1.84.55-3.72,1-5.59,1.38s-3.73.68-5.58,1-3.69.5-5.51.68l-.62.06Z" transform="translate(-6.53 -3.86)"/><path d="M488.71,20.52q-2.94.42-5.86.67c-2,.17-3.9.41-5.86.74a4.44,4.44,0,0,0-.76,1.91A16.1,16.1,0,0,0,476,25.9q3.16.59,6.29,1.05l6.34,1a9,9,0,0,1,.8,2.84,14.23,14.23,0,0,1,0,3.13,14.61,14.61,0,0,1-.63,3.09,13.09,13.09,0,0,1-1.2,2.73,36.08,36.08,0,0,1-5.12,2q-2.67.8-5.4,1.34c-1.82.35-3.64.66-5.48.93s-3.64.49-5.42.67c-.23-.13-.42-.51-.59-1.15a18.32,18.32,0,0,1-.4-2.08c-.1-.75-.18-1.48-.23-2.19a12.09,12.09,0,0,1,0-1.49c1-.08,2-.17,3.19-.29s2.29-.26,3.38-.45,2.1-.4,3-.63a15.55,15.55,0,0,0,2.12-.65,5.83,5.83,0,0,0,.23-1.19,5.9,5.9,0,0,0,0-1.33,3.58,3.58,0,0,0-1.37-.5c-.64-.13-1.37-.25-2.2-.38s-1.71-.24-2.65-.34-1.85-.22-2.73-.35a22.33,22.33,0,0,1-2.4-.46,5.49,5.49,0,0,1-1.74-.68,28.45,28.45,0,0,1,.48-7,24.71,24.71,0,0,1,2.23-6.6,47.71,47.71,0,0,1,5.17-1.43q2.7-.6,5.44-.94c1.83-.23,3.66-.39,5.48-.48s3.61-.1,5.36,0a12.66,12.66,0,0,1,.61,3.26C488.71,18.4,488.73,19.5,488.71,20.52Z" transform="translate(-6.53 -3.86)"/></g><g id="Layer_1_copy_2" data-name="Layer 1 copy 2"><path d="M21.32,50.08c-2.09,0-4.13,0-6.08-.12s-3.76-.17-5.42-.27l-1.35-.08L8,48.33c-.21-.66-.43-1.37-.63-2.13S7,44.65,6.89,43.89a19.81,19.81,0,0,1-.32-2.3,10.76,10.76,0,0,1,0-2.06l0-.48.27-.4C8,37,9.24,35.07,10.5,33.07s2.51-4,3.72-5.9,2.3-3.74,3.29-5.45l.75-1.31-2.66.08-1.57,0-1.56,0a17.83,17.83,0,0,1-3.3-.39L8,19.85l-.33-1.16a18.61,18.61,0,0,1-.68-4c-.08-1.27-.09-2.61,0-4L7,8.86l1.85-.08c1.19,0,2.77-.17,4.68-.37S17.7,8,20,7.94c1.23-.05,2.49-.08,3.75-.08q1.65,0,3.33.06A31.17,31.17,0,0,1,34.1,9l1.4.38.07,1.45c0,.55.06,1.17.11,1.88s.09,1.51.12,2.29,0,1.55,0,2.3a16.81,16.81,0,0,1-.2,2.25l0,.26-.11.24c-1,2.17-2.05,4.21-3.09,6s-2.07,3.57-3.09,5.22-2.06,3.28-3.09,4.84c-.4.62-.81,1.25-1.21,1.89h6.36c1.16,0,2.2,0,3.1.12l1.66.16L36.25,40a22.32,22.32,0,0,1,0,3.92,35.41,35.41,0,0,1-.59,3.84l-.28,1.36L34,49.29c-2,.31-4.17.52-6.34.63S23.39,50.08,21.32,50.08Z" transform="translate(-6.53 -3.86)"/><path d="M34.26,40.14a20.06,20.06,0,0,1,0,3.55,33.46,33.46,0,0,1-.56,3.62,57.12,57.12,0,0,1-6.12.61c-2.1.1-4.18.16-6.24.16s-4.06,0-6-.12-3.73-.17-5.38-.27c-.2-.61-.4-1.28-.59-2s-.36-1.45-.5-2.18a17.8,17.8,0,0,1-.28-2.08,7.8,7.8,0,0,1,0-1.68q1.71-2.59,3.62-5.61l3.72-5.91q1.82-2.91,3.32-5.5t2.35-4.28a26.69,26.69,0,0,0-3-.05c-1,0-2,.07-3.05.09s-2,0-3,0a15.45,15.45,0,0,1-2.92-.34A16.67,16.67,0,0,1,9,14.58a36.71,36.71,0,0,1,0-3.8c1.24,0,2.85-.18,4.81-.38s4.06-.36,6.31-.46,4.56-.11,6.91,0a29,29,0,0,1,6.59,1c0,.56.06,1.21.11,1.93s.09,1.47.12,2.22,0,1.48,0,2.19a14.16,14.16,0,0,1-.17,1.95c-1,2.14-2,4.1-3,5.9s-2,3.51-3.05,5.15-2,3.24-3.06,4.79-2,3.16-3,4.81a27.16,27.16,0,0,0,2.94.17l3.45,0h3.44C32.44,40,33.42,40.06,34.26,40.14Z" transform="translate(-6.53 -3.86)"/><path d="M47.24,50q-1.4,0-2.64-.06a27.24,27.24,0,0,1-3.45-.35l-.79-.15s-1.17-1.62-1.59-2.18S37.9,46,37.48,45.34s-.8-1.27-1.15-1.89a13.54,13.54,0,0,1-.88-1.83l-.15-.38v-.4a25.64,25.64,0,0,1,.75-5.35,21,21,0,0,1,1.65-4.57l.26-.48.46-.28a12.93,12.93,0,0,1,3.09-1.31c1.16-.35,2.46-.7,3.87-1q1.59-.39,3.3-.72l-.6,0c-1,0-2-.05-2.94-.05h-.72L41,27H39.06L39,25.1a18.1,18.1,0,0,1,0-2.19c0-.76.15-1.51.27-2.23a14.65,14.65,0,0,1,.49-2,4.69,4.69,0,0,1,1.08-1.87l.5-.5.71-.08c1.75-.18,3.58-.32,5.42-.42,1.25-.07,2.51-.11,3.76-.11.63,0,1.25,0,1.88,0a48,48,0,0,1,5.65.48,41.61,41.61,0,0,1,5.4,1.12l.63.17.41.51a9.41,9.41,0,0,1,1.57,3.51A37.81,37.81,0,0,1,67.62,26c.21,1.65.36,3.43.45,5.3s.14,3.7.16,5.49,0,3.52-.06,5.13-.12,3-.2,4.16l-.09,1.4-1.35.39a35.1,35.1,0,0,1-3.53.77c-1.35.24-2.83.44-4.4.61s-3.18.31-4.83.43-3.28.19-4.82.23C48.36,50,47.79,50,47.24,50Zm4-10.76h.43l1.6-.12c0-.49,0-2,0-2.3l-.76.1a6.39,6.39,0,0,0-1.46.37h0a4.05,4.05,0,0,0,0,.93,8.61,8.61,0,0,0,.12,1Z" transform="translate(-6.53 -3.86)"/><path d="M66,46c-.89.25-2,.49-3.32.72s-2.75.43-4.28.59-3.11.31-4.75.42-3.22.19-4.73.23-2.92,0-4.2,0a25.24,25.24,0,0,1-3.19-.32L40.38,46c-.42-.57-.82-1.16-1.22-1.77s-.76-1.21-1.09-1.8a12.14,12.14,0,0,1-.76-1.56A23,23,0,0,1,38,36a18.33,18.33,0,0,1,1.49-4.12,11.56,11.56,0,0,1,2.61-1.09c1.13-.34,2.39-.68,3.76-1s2.81-.63,4.31-.91,2.94-.54,4.32-.77c-.08-.3-.15-.65-.23-1.05A3.59,3.59,0,0,0,54,26.2a7.25,7.25,0,0,0-2.44-.8,26.75,26.75,0,0,0-3.42-.34c-1.23,0-2.49-.07-3.76-.06L41,25a19,19,0,0,1,0-2c.05-.7.14-1.37.25-2a14,14,0,0,1,.42-1.72,2.81,2.81,0,0,1,.59-1.09c1.73-.17,3.51-.31,5.33-.42s3.64-.12,5.48-.07a46.42,46.42,0,0,1,5.42.46,41.53,41.53,0,0,1,5.15,1.06A7.68,7.68,0,0,1,64.85,22a33.77,33.77,0,0,1,.78,4.26c.21,1.6.35,3.32.44,5.15s.14,3.63.16,5.4,0,3.46-.06,5.06S66.05,44.86,66,46ZM55.29,40.9c0-1.15,0-2.24-.06-3.28s0-2.12-.09-3.21c-1,.2-2,.36-2.92.48a8.73,8.73,0,0,0-2.81.86A3.77,3.77,0,0,0,49,36.91,6.2,6.2,0,0,0,49,38.28a13,13,0,0,0,.17,1.4,8.22,8.22,0,0,0,.33,1.22,5.17,5.17,0,0,0,2.33.29C52.74,41.12,53.92,41,55.29,40.9Z" transform="translate(-6.53 -3.86)"/><path d="M73.46,56.07c-.93,0-1.8,0-2.58-.08l-1.8-.13-.23-7.23c-.07-2-.12-4.13-.16-6.34s0-4.46,0-6.74,0-4.45,0-6.54.06-4.05.14-5.85.17-3.33.27-4.57l.12-1.35,1.29-.4a17.89,17.89,0,0,1,3-.53c1.23-.13,2.63-.23,4.15-.29s3.11-.11,4.76-.12h4.79c1.55,0,3,0,4.24.1s2.33.12,3.06.2l.76.08.51.57a23.38,23.38,0,0,1,2.6,3.44,24.22,24.22,0,0,1,1.81,3.55,29.31,29.31,0,0,1,1.25,3.81c.32,1.26.64,2.63,1,4.09l.07.32,0,.32a8.54,8.54,0,0,1-.85,2.57A26.07,26.07,0,0,1,100,37.81c-.62,1-1.29,1.92-2,2.83A16.68,16.68,0,0,1,95.81,43l-.32.29-.42.12c-1.13.35-2.34.67-3.59,1S89,45,87.7,45.18s-2.44.41-3.59.56l-1.26.16c0,.14.09,2.9.09,2.9,0,.83,0,1.66.06,2.47s0,1.68-.06,2.44l-.12,1.65-1.64.2c-.65.08-1.41.15-2.27.23s-1.75.15-2.66.2S74.38,56.07,73.46,56.07ZM83.77,27.73c-.1.84-.18,1.73-.24,2.65s-.09,1.88-.09,2.86c0,.25,0,.5,0,.74a9.23,9.23,0,0,0,1-.29A10.45,10.45,0,0,0,86.19,33a3.62,3.62,0,0,0,.54-.36,25.74,25.74,0,0,0-.39-3.16c-.2-1.05-.36-1.73-.49-2.16a4.31,4.31,0,0,0-1.07-.22,4.89,4.89,0,0,0-.54,0l-.39,0C83.82,27.26,83.8,27.49,83.77,27.73Z" transform="translate(-6.53 -3.86)"/><path d="M100.45,32.16a6.73,6.73,0,0,1-.67,1.94,22.4,22.4,0,0,1-1.47,2.64q-.87,1.36-1.89,2.67a14.54,14.54,0,0,1-1.93,2.1c-1.09.33-2.25.64-3.47.93s-2.44.55-3.66.77-2.4.4-3.52.55-2.12.26-3,.31c0,.71,0,1.48,0,2.31s0,1.65.07,2.48,0,1.64.06,2.44,0,1.56-.06,2.27c-.63.08-1.37.15-2.21.23s-1.71.14-2.6.19-1.78.08-2.67.08S71.75,54,71,54c0-1.6-.11-3.41-.17-5.42s-.12-4.11-.16-6.32,0-4.43,0-6.7,0-4.44,0-6.52.06-4,.14-5.79.16-3.26.27-4.48a15.42,15.42,0,0,1,2.67-.46c1.19-.13,2.54-.22,4-.29s3.06-.1,4.7-.11H87.2c1.53,0,2.92,0,4.18.09s2.24.12,2.92.2a21.94,21.94,0,0,1,2.39,3.14,22.84,22.84,0,0,1,1.66,3.27,25.44,25.44,0,0,1,1.16,3.55C99.83,29.4,100.14,30.73,100.45,32.16ZM88.77,33.38a28.89,28.89,0,0,0-.46-4.32,18.77,18.77,0,0,0-.73-2.93,2,2,0,0,0-1.06-.75A7,7,0,0,0,85,25.06a7.3,7.3,0,0,0-1.62,0A4.88,4.88,0,0,0,82,25.4c-.05.53-.13,1.23-.23,2.1s-.18,1.78-.25,2.75-.09,2-.09,3a25.92,25.92,0,0,0,.15,2.89,6,6,0,0,0,1.53-.06,11.78,11.78,0,0,0,2-.48,12.24,12.24,0,0,0,2-.89A5.33,5.33,0,0,0,88.77,33.38Z" transform="translate(-6.53 -3.86)"/><path d="M128.27,51.91c-.52-.61-1.05-1.26-1.6-1.94-.35-.43-.69-.87-1-1.33-1.34.07-2.68.11-4,.12h-4.71c-1.49,0-2.88,0-4.13-.1l-3.09-.11-.83,0-.56-.6a17.8,17.8,0,0,1-1.49-1.85,26.27,26.27,0,0,1-1.47-2.32c-.45-.79-.87-1.59-1.26-2.37s-.72-1.55-1-2.22l-.09-.24,0-.25c-.18-1.66-.32-3.41-.41-5.21s-.14-3.59-.15-5.37,0-3.53.08-5.23.14-3.24.25-4.67l0-.69.47-.52c.85-.91,1.72-2,2.6-3.1s1.94-2.42,2.94-3.51l.45-.48.65-.12c1.14-.21,2.47-.4,3.95-.54s3-.26,4.49-.35,3.08-.16,4.59-.2,2.92,0,4.21,0l3.28,0,2,0h.71l.56.45a14.86,14.86,0,0,1,1.93,2c.57.69,1.13,1.42,1.68,2.16s1.07,1.5,1.56,2.26,1,1.47,1.37,2.15l.22.35.06.41c.13.92.25,2,.35,3.25s.19,2.5.26,3.81.11,2.64.15,4,.06,2.63.06,3.84,0,2.28,0,3.24-.07,1.77-.12,2.38l-.05.55-.33.45c-.6.82-1.18,1.67-1.7,2.53l-.85,1.37.21.2c.45.44.83.82,1.13,1.15l1.06,1.16-.87,1.3a8.15,8.15,0,0,1-1.86,2,12.47,12.47,0,0,1-2.35,1.4,25,25,0,0,1-2.57,1,25.69,25.69,0,0,1-2.81.72l-1.17.24Zm-8.64-29.77c-.11.91-.2,1.85-.25,2.81-.09,1.4-.13,2.82-.13,4.25,0,.69,0,1.38,0,2.07a7.14,7.14,0,0,1,1.76-.72,26.59,26.59,0,0,1,2.83-.6l.38-.06c0-.9,0-1.81,0-2.71,0-1.23-.08-2.42-.15-3.54,0-.48-.07-.94-.13-1.38l-.28,0c-.62-.07-1.26-.12-1.92-.16l-.68,0c-.38,0-.76,0-1.14.05Z" transform="translate(-6.53 -3.86)"/><path d="M139.2,38.65q-1,1.29-1.8,2.67c-.56.91-1.13,1.82-1.72,2.71l1.4,1.33c.42.41.77.77,1,1.07a6,6,0,0,1-1.42,1.47,10,10,0,0,1-2,1.17,20.17,20.17,0,0,1-2.35.89,24.14,24.14,0,0,1-2.6.67l-1.58-1.92c-.55-.68-1.09-1.39-1.62-2.12-1.68.1-3.34.16-5,.17s-3.2,0-4.68,0-2.83,0-4.07-.1l-3.11-.11a16.44,16.44,0,0,1-1.31-1.64,24.53,24.53,0,0,1-1.36-2.14c-.43-.76-.83-1.52-1.2-2.27s-.67-1.43-.9-2c-.18-1.63-.31-3.33-.4-5.1s-.14-3.53-.15-5.29,0-3.47.07-5.13.15-3.2.25-4.6c.89-1,1.8-2.05,2.71-3.25s1.86-2.31,2.83-3.36q1.64-.3,3.78-.51c1.42-.14,2.89-.26,4.41-.34s3-.16,4.52-.2,2.89,0,4.16,0l3.3,0,2,0a12.59,12.59,0,0,1,1.66,1.68c.55.66,1.08,1.35,1.6,2.06s1,1.44,1.51,2.18.93,1.43,1.34,2.09c.12.9.24,1.94.34,3.14s.18,2.44.25,3.74.11,2.61.15,3.95.06,2.59.06,3.78,0,2.24,0,3.18S139.25,38.09,139.2,38.65Zm-13.06-4.09c0-1.17,0-2.38.08-3.64s0-2.52,0-3.78-.08-2.47-.16-3.63a24.72,24.72,0,0,0-.38-3.15,17.28,17.28,0,0,1-1.79-.11c-.66-.08-1.35-.14-2-.18a16.36,16.36,0,0,0-2.1,0,5.73,5.73,0,0,0-1.93.52c-.21,1.35-.35,2.75-.44,4.2s-.13,2.91-.13,4.37,0,2.92.07,4.39.12,2.88.19,4.25c.54.11,1.13.2,1.8.29a19,19,0,0,0,2,.17,23.46,23.46,0,0,1-1.24-2.55,13.17,13.17,0,0,1-.67-2.07,4.28,4.28,0,0,1,2.12-1.2,24.9,24.9,0,0,1,2.61-.55A18,18,0,0,0,126.14,34.56Z" transform="translate(-6.53 -3.86)"/><path d="M153,49c-1.88,0-3.65-.07-5.26-.2l-.73-.06-.52-.52a14.4,14.4,0,0,1-1.23-1.43c-.43-.55-.86-1.15-1.28-1.77s-.82-1.28-1.17-1.92a12.73,12.73,0,0,1-.84-1.82l-.11-.32v-.34c0-.75,0-1.69,0-2.82s0-2.38-.07-3.71L141.7,30c0-1.41,0-2.77,0-4.07s0-2.39.08-3.24a22.42,22.42,0,0,1,.23-2.42l.24-1.48,1.49-.19c1.89-.23,3.75-.37,5.53-.41H150a42.19,42.19,0,0,1,5,.31l1.91.22-.15,1.92c-.15,1.93-.25,3.63-.3,5s-.07,2.92-.06,4.45.06,3,.14,4.42c0,.93.1,1.86.16,2.79h0a8.27,8.27,0,0,0,1.11.07l.56,0a6.21,6.21,0,0,0,1.44-.26l.16-.06c0-1.11,0-2.26,0-3.43,0-1.61,0-3.23,0-4.85s0-3.09,0-4.4,0-2.66,0-4l0-1.62,1.58-.31a30.78,30.78,0,0,1,5.86-.57c1.8,0,3.67,0,5.54-.07l2.09-.06,0,2.09c0,1.59-.07,3.19-.12,4.82s-.09,3.35-.11,5.23,0,3.71,0,5.47,0,3.32.07,4.68l0,.36-.12.35a10.3,10.3,0,0,1-.87,1.88c-.34.58-.74,1.2-1.18,1.83s-.88,1.22-1.33,1.8-.89,1.09-1.29,1.55l-.58.66-.88,0c-1.28,0-2.78.07-4.49.15s-3.55.15-5.43.21S154.88,49,153,49Z" transform="translate(-6.53 -3.86)"/><path d="M173,19.86q0,2.37-.12,4.8c-.05,1.61-.09,3.37-.11,5.26s0,3.73,0,5.5,0,3.35.08,4.75a8.7,8.7,0,0,1-.71,1.51c-.32.55-.68,1.11-1.09,1.7s-.83,1.15-1.26,1.7-.84,1-1.22,1.47c-1.3,0-2.81.07-4.54.15s-3.53.15-5.4.21-3.73.1-5.58.1-3.54-.07-5.09-.19a12,12,0,0,1-1.07-1.25c-.41-.52-.81-1.07-1.2-1.66a18.27,18.27,0,0,1-1.07-1.75,10.83,10.83,0,0,1-.71-1.53c0-.76,0-1.72,0-2.86s0-2.38-.07-3.7-.06-2.68-.08-4.07,0-2.72,0-4,0-2.34.08-3.17a16.46,16.46,0,0,1,.21-2.19,52.37,52.37,0,0,1,5.32-.4,39.55,39.55,0,0,1,5.52.28c-.16,2-.26,3.68-.31,5.14s-.07,3-.06,4.54.06,3.07.14,4.51.16,2.86.27,4.29a6.33,6.33,0,0,0,1.68.38,11.09,11.09,0,0,0,2,.06,8,8,0,0,0,1.95-.36,4.67,4.67,0,0,0,1.54-.81c0-1.47,0-3,0-4.61s0-3.22,0-4.83,0-3.08,0-4.39,0-2.63,0-3.95a28.25,28.25,0,0,1,5.47-.54C169.24,19.94,171.11,19.92,173,19.86Z" transform="translate(-6.53 -3.86)"/><path d="M185.89,50c-.93,0-1.81,0-2.65-.06a27.26,27.26,0,0,1-3.44-.35l-.8-.15-1.58-2.18c-.44-.6-.88-1.23-1.29-1.88s-.8-1.27-1.15-1.89a15.05,15.05,0,0,1-.89-1.83l-.15-.38,0-.4a25,25,0,0,1,.74-5.35,21,21,0,0,1,1.66-4.57l.25-.48.46-.28a13,13,0,0,1,3.1-1.31c1.16-.35,2.46-.7,3.87-1,1.05-.26,2.16-.5,3.29-.72l-.6,0c-1,0-1.94-.05-2.93-.05h-.73l-3.45,0H177.7l-.08-1.92a20.41,20.41,0,0,1,0-2.19c.06-.76.15-1.51.28-2.23a13.31,13.31,0,0,1,.49-2,4.8,4.8,0,0,1,1.07-1.87l.51-.5.7-.08c1.76-.18,3.58-.32,5.42-.42,1.25-.07,2.52-.11,3.77-.11l1.88,0a48,48,0,0,1,5.64.48,42.12,42.12,0,0,1,5.41,1.12l.63.17.4.51a9.25,9.25,0,0,1,1.57,3.51,35.91,35.91,0,0,1,.83,4.51c.21,1.65.37,3.43.46,5.3s.14,3.7.15,5.49,0,3.52-.06,5.13-.11,3-.19,4.16l-.1,1.4-1.35.39a34.49,34.49,0,0,1-3.53.77c-1.35.24-2.83.44-4.4.61s-3.17.31-4.83.43-3.28.19-4.82.23C187,50,186.44,50,185.89,50Zm4-10.76h.42l1.61-.12c0-.49,0-2,0-2.3l-.75.1a6.14,6.14,0,0,0-1.46.37h0a4.05,4.05,0,0,0-.05.93,5.8,5.8,0,0,0,.12,1Z" transform="translate(-6.53 -3.86)"/><path d="M204.62,46a33.82,33.82,0,0,1-3.32.72c-1.32.23-2.75.43-4.27.59s-3.11.31-4.76.42-3.22.19-4.73.23-2.91,0-4.2,0a25.44,25.44,0,0,1-3.19-.32L179,46c-.42-.57-.83-1.16-1.22-1.77s-.76-1.21-1.09-1.8A11,11,0,0,1,176,40.9a23,23,0,0,1,.68-4.93,19.36,19.36,0,0,1,1.49-4.12,11.47,11.47,0,0,1,2.62-1.09c1.13-.34,2.38-.68,3.76-1s2.81-.63,4.31-.91,2.94-.54,4.31-.77c-.07-.3-.15-.65-.23-1.05a3.71,3.71,0,0,0-.22-.82,7.24,7.24,0,0,0-2.45-.8,26.4,26.4,0,0,0-3.41-.34c-1.24,0-2.49-.07-3.76-.06l-3.44,0a16.55,16.55,0,0,1,0-2,18.27,18.27,0,0,1,.25-2,11.11,11.11,0,0,1,.42-1.72,2.69,2.69,0,0,1,.59-1.09c1.73-.17,3.5-.31,5.32-.42s3.65-.12,5.48-.07a46.24,46.24,0,0,1,5.42.46,42.07,42.07,0,0,1,5.16,1.06A7.68,7.68,0,0,1,203.5,22a33.77,33.77,0,0,1,.78,4.26c.2,1.6.35,3.32.44,5.15s.14,3.63.15,5.4,0,3.46-.06,5.06S204.7,44.86,204.62,46ZM193.94,40.9c0-1.15-.05-2.24-.06-3.28s0-2.12-.1-3.21c-1,.2-2,.36-2.92.48a8.68,8.68,0,0,0-2.8.86,3.77,3.77,0,0,0-.39,1.16,6.2,6.2,0,0,0-.07,1.37,9.39,9.39,0,0,0,.17,1.4,9.73,9.73,0,0,0,.32,1.22,5.21,5.21,0,0,0,2.33.29C191.39,41.12,192.56,41,193.94,40.9Z" transform="translate(-6.53 -3.86)"/><path d="M225.68,48.58c-.83-1.06-1.63-2.13-2.37-3.18s-1.43-2-2-2.9l-.06-.1c0,.72,0,1.45,0,2.18s-.05,1.59-.11,2.25L221,48l-1,.5a7.73,7.73,0,0,1-2.66.62c-1,.11-2.08.19-3.19.26s-2.22.1-3.23.1a10.73,10.73,0,0,1-2.56-.22L207,48.87l-.13-1.42c-.1-1.19-.18-2.81-.24-4.84s-.07-4.25-.05-6.67,0-4.88.07-7.42.09-4.92.14-7.16.1-4.19.15-5.89.09-2.89.12-3.58l0-1.58,1.55-.31a17.21,17.21,0,0,1,2.84-.27l2.15,0h1.06c1.08,0,2.05,0,2.93.08l1.81.1,1.94.17L221.24,12c0,.42-.05,1-.07,1.85s0,1.78-.06,2.83,0,2.18,0,3.34,0,2.27,0,3.33c0,.43,0,.84,0,1.24.48-.66,1-1.36,1.47-2.09l1.89-2.72,1.57-2.3.58-.84,1,0h.56c.67,0,1.37,0,2.1.11.9.1,1.82.22,2.73.38s1.81.34,2.72.53l5.4,1.18-1.62,2.44c-.35.52-.85,1.32-1.51,2.38l-2.18,3.52q-1.15,1.86-2.32,3.78c-.53.89-1,1.7-1.44,2.45a22.45,22.45,0,0,0,1.21,2.22c.62,1,1.28,2,1.94,3l2.06,3a30.44,30.44,0,0,1,2,3.36L240.37,47l-2.21.74a21.81,21.81,0,0,1-2.59.66c-1,.2-2,.36-3.08.48s-2,.21-2.9.29l-2.14.19-1.09.11Z" transform="translate(-6.53 -3.86)"/><path d="M237.87,20.13c-.35.54-.87,1.35-1.54,2.45l-2.18,3.51c-.78,1.24-1.55,2.51-2.33,3.8s-1.43,2.41-2,3.37a24.94,24.94,0,0,0,1.73,3.38c.65,1.06,1.32,2.08,2,3.08l2.06,3a28.12,28.12,0,0,1,1.87,3.13,18.52,18.52,0,0,1-2.35.59c-1,.2-1.93.35-2.92.46s-1.94.21-2.84.29l-2.16.19c-.81-1-1.59-2.08-2.33-3.11s-1.4-2-2-2.86-1.12-1.66-1.57-2.33a11.12,11.12,0,0,0-1.09-1.47,1.19,1.19,0,0,0-.57-.19.59.59,0,0,0-.36.11c-.11.08-.17.27-.17.57,0,.49,0,1.09,0,1.82s0,1.48,0,2.27,0,1.58,0,2.38-.05,1.51-.1,2.12a6.48,6.48,0,0,1-2,.42c-1,.1-2,.19-3.1.25s-2.13.1-3.11.1a9.11,9.11,0,0,1-2.08-.16c-.1-1.14-.18-2.71-.23-4.71s-.07-4.2-.05-6.6,0-4.88.07-7.41.09-4.91.14-7.14.1-4.18.15-5.88S209,12.65,209,12a16.57,16.57,0,0,1,2.5-.23c1,0,2.08,0,3.13,0s2,0,2.87.08,1.43.07,1.73.1c0,.43-.05,1.07-.07,1.91s0,1.79-.06,2.86,0,2.19,0,3.36,0,2.29,0,3.36,0,2.05.1,2.94.11,1.57.19,2.06a.54.54,0,0,0,.51.53c.29,0,.66-.21,1.09-.72l1.41-2c.59-.81,1.2-1.68,1.84-2.6l1.88-2.73q.94-1.35,1.59-2.31a18,18,0,0,1,2.38.1c.86.09,1.72.21,2.6.36s1.76.33,2.63.52Z" transform="translate(-6.53 -3.86)"/><path d="M265.43,49.69c-1.78,0-3.75-.06-5.85-.19s-4.22-.33-6.34-.58-4.27-.62-6.32-1.07a52.89,52.89,0,0,1-5.75-1.54l-.54-.18-.37-.45a8.12,8.12,0,0,1-1.53-3.41,24.63,24.63,0,0,1-.56-4.24,41.23,41.23,0,0,1,0-4.83,42.72,42.72,0,0,1,.58-4.92,35.32,35.32,0,0,1,1.07-4.47,13.82,13.82,0,0,1,1.66-3.65l.28-.41.43-.23a15,15,0,0,1,3.42-1.21c1.37-.35,2.9-.66,4.57-.92s3.37-.48,5.15-.68,3.49-.33,5.06-.41c1-.05,1.85-.07,2.67-.07.56,0,1.08,0,1.58,0a9.82,9.82,0,0,1,3.08.49l.63.26.34.6a20.17,20.17,0,0,1,1.7,3.89,34.3,34.3,0,0,1,1.11,4.44,45.75,45.75,0,0,1,.62,4.69,42,42,0,0,1,.12,4.73L272.22,37l-1.63.25c-.85.14-2,.28-3.5.44s-3.1.3-4.81.42l-2.8.19.59.06,2.95.27c1,.08,1.78.15,2.5.23a7.56,7.56,0,0,1,2,.4l1.2.47.06,1.29a16.75,16.75,0,0,1,0,2.09,21,21,0,0,1-.28,2.22,14.76,14.76,0,0,1-.48,2,3.8,3.8,0,0,1-1.38,2l-.51.33Zm-11-20.85q.57-.06,1.11-.15l1.54-.27c0-.17,0-.33,0-.5a1.37,1.37,0,0,0,0-.19c-.26,0-.52,0-.8.08s-.74.11-1.15.19l-.39.11C254.63,28.36,254.55,28.61,254.47,28.84Z" transform="translate(-6.53 -3.86)"/><path d="M270.28,35.29c-.81.12-1.94.26-3.4.42s-3,.29-4.75.42-3.48.24-5.3.34-3.5.18-5,.23A7.45,7.45,0,0,0,252,38a3.44,3.44,0,0,0,.42,1,6.42,6.42,0,0,0,1.75.63,22,22,0,0,0,2.63.46c1,.11,2,.22,3,.32s2.05.2,3,.27,1.74.15,2.44.23a6.52,6.52,0,0,1,1.43.27,14.9,14.9,0,0,1,0,1.85,19.92,19.92,0,0,1-.24,2A15,15,0,0,1,266,46.7a1.86,1.86,0,0,1-.6,1c-1.75,0-3.66-.06-5.72-.19s-4.14-.32-6.22-.57-4.14-.6-6.15-1a51.9,51.9,0,0,1-5.54-1.49,6.38,6.38,0,0,1-1.12-2.6,22.36,22.36,0,0,1-.52-3.89,41.86,41.86,0,0,1,0-4.6,43.6,43.6,0,0,1,.55-4.69,33.46,33.46,0,0,1,1-4.22,11.62,11.62,0,0,1,1.41-3.13,13.3,13.3,0,0,1,3-1c1.31-.33,2.77-.63,4.39-.88s3.3-.48,5.05-.67,3.41-.32,4.95-.4,2.89-.09,4.06,0a8.5,8.5,0,0,1,2.41.34,19.5,19.5,0,0,1,1.53,3.52,32.32,32.32,0,0,1,1.05,4.18c.26,1.46.46,3,.59,4.5A40.11,40.11,0,0,1,270.28,35.29ZM259.1,30a15.45,15.45,0,0,0,0-2.25,5.35,5.35,0,0,0-.59-2.1l-1.24,0c-.4,0-.81.05-1.23.1s-.86.13-1.33.23a9,9,0,0,0-1.59.53c-.22.74-.44,1.4-.64,2a11.32,11.32,0,0,0-.5,2.35,20.19,20.19,0,0,0,3.95-.23C257.14,30.46,258.21,30.25,259.1,30Z" transform="translate(-6.53 -3.86)"/><path d="M315.45,49.24c-2,0-4.09-.08-6.23-.16s-4.41-.23-6.63-.45a66.4,66.4,0,0,1-6.64-1,41.08,41.08,0,0,1-6.3-1.81l-.56-.21-.35-.48a10.39,10.39,0,0,1-1.58-4,34.47,34.47,0,0,1-.61-5.17,56.81,56.81,0,0,1,0-6c.12-2.08.33-4.12.63-6.07a44.38,44.38,0,0,1,1.2-5.52A20.07,20.07,0,0,1,290.19,14l.27-.46.46-.27a16.12,16.12,0,0,1,3.55-1.43c1.39-.41,2.95-.78,4.65-1.11s3.42-.62,5.21-.86,3.52-.42,5.12-.51c1.12-.07,2.16-.1,3.1-.1l1.18,0a7.85,7.85,0,0,1,3.37.67l.89.47.15,1c.06.36.11.85.17,1.46s.1,1.27.12,2,0,1.58,0,2.44a25,25,0,0,1-.27,2.66l-.23,1.58-1.59.12c-1.34.1-2.59.18-3.77.25s-2.23.14-3.28.22a25.89,25.89,0,0,0-2.86.42,13.8,13.8,0,0,0-1.75.52c-.19.82-.37,1.73-.56,2.72-.25,1.38-.44,2.79-.56,4.2a25.05,25.05,0,0,0-.06,3.85,8.17,8.17,0,0,0,.32,1.84,6.24,6.24,0,0,0,.73.2,19.83,19.83,0,0,0,2.46.36c1,.09,2,.16,3,.21s2.05.09,3,.11,1.86.08,2.61.14a6.28,6.28,0,0,1,2.24.53l1.06.53.05,1.18a21.9,21.9,0,0,1-.06,2.49c-.07.92-.16,1.82-.28,2.66a17.19,17.19,0,0,1-.53,2.45,4.23,4.23,0,0,1-1.33,2.24l-.56.45Z" transform="translate(-6.53 -3.86)"/><path d="M316.93,39a18.3,18.3,0,0,1-.06,2.27c-.06.88-.15,1.72-.26,2.52a16,16,0,0,1-.46,2.16,2.68,2.68,0,0,1-.67,1.26q-2.94,0-6.19-.16t-6.5-.44a62.47,62.47,0,0,1-6.44-1,37.88,37.88,0,0,1-6-1.72,8.53,8.53,0,0,1-1.24-3.26,33.12,33.12,0,0,1-.57-4.87,52.67,52.67,0,0,1,0-5.74,57.29,57.29,0,0,1,.61-5.88,41.21,41.21,0,0,1,1.14-5.27A17.94,17.94,0,0,1,291.93,15,14,14,0,0,1,295,13.74c1.33-.4,2.82-.75,4.46-1.07s3.34-.6,5.1-.84,3.41-.41,5-.5,2.92-.11,4.11-.07a6.05,6.05,0,0,1,2.5.44c.05.33.1.77.15,1.33s.09,1.2.11,1.91,0,1.47,0,2.27a23.78,23.78,0,0,1-.24,2.46c-1.33.11-2.57.19-3.73.25s-2.27.14-3.34.23a24.26,24.26,0,0,0-3.11.46,15.4,15.4,0,0,0-3,1c-.28,1.1-.56,2.37-.82,3.82a42.87,42.87,0,0,0-.59,4.39,26.54,26.54,0,0,0-.06,4.16,8.23,8.23,0,0,0,.74,3.13,5.25,5.25,0,0,0,1.87.72,21.87,21.87,0,0,0,2.71.41c1,.08,2,.15,3.1.21s2.07.08,3,.11,1.77.07,2.48.13A4.82,4.82,0,0,1,316.93,39Z" transform="translate(-6.53 -3.86)"/><path d="M335.35,49.43c-2.05,0-4.1,0-6.09-.12s-3.84-.21-5.39-.39l-.69-.09-.49-.48a14.88,14.88,0,0,1-1.28-1.53c-.42-.57-.84-1.19-1.25-1.85S319.37,43.68,319,43a16.21,16.21,0,0,1-.87-1.84l-.13-.33v-.35c0-1.18,0-2.5,0-4V32.25c0-1.45,0-2.87.06-4.23s.08-2.57.14-3.6l0-.77.55-.54c.29-.29.66-.69,1.12-1.19s1-1.1,1.54-1.66,1.06-1.09,1.56-1.58a9,9,0,0,1,1.57-1.28l.42-.26.49,0c1.16-.08,2.56-.19,4.18-.33s3.42-.25,5.2-.33c1.35-.05,2.7-.08,4-.08h1.32a28.54,28.54,0,0,1,4.91.45l.48.09.38.31a17.65,17.65,0,0,1,3.17,3.35c.91,1.23,1.75,2.41,2.5,3.49l.31.45,0,.54c.08,1.06.15,2.38.22,3.94s.1,3.13.13,4.73,0,3.07,0,4.42a22.47,22.47,0,0,1-.2,3.25l-.08.53-.33.42c-.7.86-1.4,1.78-2.09,2.75s-1.55,2-2.4,3l-.46.51-.67.12a38.1,38.1,0,0,1-4.86.53C339.38,49.37,337.39,49.43,335.35,49.43Zm-2-10.77q.39,0,.78,0a7.66,7.66,0,0,0,.95,0,6.57,6.57,0,0,0,1.56-.35l.23-.09c0-1.6.08-3.35.12-5.23a45.67,45.67,0,0,0-.17-5.06h-.06c-.54,0-1.07,0-1.57.08s-.94.12-1.39.21l-.35.09v.06c-.06.62-.1,1.35-.14,2.18s-.06,1.76-.06,2.72v2.87c0,.89,0,1.68,0,2.37a.76.76,0,0,0,0,.15Z" transform="translate(-6.53 -3.86)"/><path d="M350.18,41.09c-.74.92-1.46,1.86-2.16,2.84a35.88,35.88,0,0,1-2.27,2.85,36.07,36.07,0,0,1-4.6.49c-1.85.11-3.78.16-5.8.16s-4,0-6-.12-3.73-.2-5.23-.38a9.88,9.88,0,0,1-1.09-1.3c-.4-.53-.78-1.11-1.17-1.72s-.73-1.22-1.07-1.83a14.61,14.61,0,0,1-.76-1.6c0-1.17,0-2.48,0-3.91V32.25c0-1.44,0-2.83.06-4.18s.08-2.53.13-3.55c.31-.3.7-.72,1.19-1.26s1-1.07,1.51-1.62,1-1.06,1.5-1.53a8.37,8.37,0,0,1,1.22-1c1.17-.08,2.58-.18,4.22-.32s3.35-.25,5.12-.33,3.51-.1,5.23-.07a25.31,25.31,0,0,1,4.56.42,15.51,15.51,0,0,1,2.81,3c.9,1.23,1.72,2.37,2.46,3.44q.11,1.56.21,3.87c.06,1.54.11,3.1.13,4.68s0,3,0,4.37A21.87,21.87,0,0,1,350.18,41.09Zm-11.34-1.72q.07-2.86.15-6.35a48.51,48.51,0,0,0-.38-7.16l-1.89.06c-.6,0-1.17,0-1.72.09a13,13,0,0,0-1.62.25,8.11,8.11,0,0,0-1.64.55,4.45,4.45,0,0,0-.29,1.36c-.06.65-.11,1.41-.15,2.29s-.06,1.81-.06,2.8v2.87c0,.91,0,1.73,0,2.44s0,1.25,0,1.6a5.24,5.24,0,0,0,1.85.48,10.74,10.74,0,0,0,2.12,0,8.26,8.26,0,0,0,2-.46A5.19,5.19,0,0,0,338.84,39.37Z" transform="translate(-6.53 -3.86)"/><path d="M357.64,49.75c-1.36,0-2.83-.07-4.37-.22l-1.77-.17,0-1.78c0-1.26,0-2.79,0-4.54s.08-3.54.16-5.45.16-3.78.26-5.69.21-3.7.31-5.36.21-3.15.31-4.43.2-2.26.28-2.86L353,18l1.22-.38A19.77,19.77,0,0,1,356.7,17c.89-.16,1.83-.3,2.8-.42s1.91-.22,2.86-.29l2.57-.2c.81-.05,1.51-.08,2.08-.08a7,7,0,0,1,1.39.08l1.1.22.38,1.06c.6,1.63,1.16,3.28,1.66,4.9a28,28,0,0,0,1,2.74l.22-.46c.32-.67.66-1.4,1-2.16s.69-1.51,1-2.22.6-1.36.84-1.92l.49-1.17.38-.94,1-.25a17,17,0,0,1,3.16-.45c1.19-.07,2.47-.12,3.79-.13h.64c1.1,0,2.2,0,3.26.09,1.3.06,2.4.17,3.28.3l1.6.25.09,1.62c.25,4.83.46,9.7.63,14.47s.4,9.62.7,14.61l.09,1.37-1.26.57a9.83,9.83,0,0,1-2.62.68c-.93.12-1.94.19-3,.22h-.9c-.75,0-1.53,0-2.31-.07L380,49.17l-.13-1.74c0-.34-.06-.89-.1-1.64s-.09-1.5-.15-2.36-.12-1.82-.18-2.79c0-.34,0-.67-.05-1l-.62,1.26c-.53,1.09-1.08,2.22-1.63,3.38s-1.12,2.31-1.66,3.39L375,48.78h-1.24c-.65,0-1.28,0-1.91,0h-.25a13.61,13.61,0,0,1-2-.16l-.89-.15-.49-.76c-.64-1-1.25-2.1-1.81-3.2s-1.05-2.12-1.52-3.14c-.14-.3-.28-.61-.41-.91l0,.67c0,.92-.07,1.8-.09,2.62s-.05,1.55-.06,2.2,0,1.11,0,1.38V49l-1.65.29a28.25,28.25,0,0,1-4.61.43Z" transform="translate(-6.53 -3.86)"/><path d="M392.63,46.78a7.43,7.43,0,0,1-2.06.51,24,24,0,0,1-2.79.21c-1,0-2,0-3,0l-2.84-.18c0-.33-.06-.86-.09-1.58s-.09-1.53-.16-2.41-.12-1.79-.17-2.74-.11-1.84-.17-2.64-.12-1.49-.15-2.06a6.55,6.55,0,0,0-.1-1c-.18-.54-.43-.77-.74-.71a1,1,0,0,0-.71.59L378.5,37,377,40l-1.64,3.4c-.56,1.17-1.1,2.29-1.64,3.36-.66,0-1.31,0-2,0a11,11,0,0,1-1.9-.14c-.61-1-1.19-2-1.72-3s-1-2.08-1.49-3.07-.87-2-1.24-2.85l-1-2.35a1,1,0,0,0-.65-.55.65.65,0,0,0-.77.36,4.33,4.33,0,0,0-.28,1.19c-.09.61-.16,1.31-.21,2.11s-.1,1.67-.14,2.6-.07,1.81-.09,2.63-.05,1.58-.06,2.24,0,1.13,0,1.41a26.21,26.21,0,0,1-4.27.4,45.12,45.12,0,0,1-4.51-.21c0-1.25,0-2.73,0-4.47s.08-3.53.15-5.4.17-3.76.27-5.67.2-3.69.31-5.34.2-3.12.3-4.39.19-2.19.27-2.75a19.12,19.12,0,0,1,2.29-.53c.86-.16,1.76-.29,2.69-.4s1.86-.21,2.79-.29,1.77-.14,2.54-.19S366.48,18,367,18a8.33,8.33,0,0,1,1,0c.58,1.6,1.12,3.21,1.62,4.81a28.29,28.29,0,0,0,1.85,4.58,1.2,1.2,0,0,0,.69.67.93.93,0,0,0,.95-.1,3.06,3.06,0,0,0,.57-.85c.26-.48.55-1.05.88-1.74s.68-1.42,1-2.2.69-1.52,1-2.25.6-1.37.84-1.93.42-1,.52-1.22a15.78,15.78,0,0,1,2.79-.38c1.17-.08,2.39-.12,3.68-.13s2.54,0,3.78.07,2.26.16,3.07.29q.39,7.24.63,14.43T392.63,46.78Z" transform="translate(-6.53 -3.86)"/><path d="M405.23,49.42h-1.45a31.49,31.49,0,0,1-6.81-.8l-1.34-.32-.18-1.36c-.11-.85-.18-2.06-.22-3.69s-.07-3.35-.08-5.36,0-4.15,0-6.5l.11-6.91c0-2.31.08-4.53.14-6.68s.09-4,.11-5.7l0-1.45,1.38-.43c.87-.27,1.84-.53,2.88-.75s2.1-.42,3.13-.55,2-.23,3-.3c.55,0,1,0,1.52,0s.75,0,1.08,0l1.93.15-.2,4.45c-.05,1.08-.09,2.2-.12,3.35s0,2,0,2.89l2.74-.18c1.06-.06,2.12-.11,3.19-.14l2.76,0h.36l.35.13A10.28,10.28,0,0,1,422.4,21a24.27,24.27,0,0,1,2.67,2.62,32.38,32.38,0,0,1,2.38,3.08,20.78,20.78,0,0,1,1.81,3.13l.22.49-.05.54c-.1,1.09-.27,2.43-.49,4s-.49,3.12-.8,4.61A38.14,38.14,0,0,1,427,43.66a7.33,7.33,0,0,1-1.85,3.28l-.4.35-.52.11-2.43.48c-1,.2-2.14.38-3.33.55s-2.37.33-3.62.49-2.5.26-3.65.31C409.2,49.36,407.17,49.42,405.23,49.42Zm5-18.19c0,.43,0,.88-.07,1.34,0,1-.05,2,0,3s0,1.85.09,2.67v.19l.82-.07a8.1,8.1,0,0,0,1.15-.2l.28-.08a3.3,3.3,0,0,0,.14-.53,19.13,19.13,0,0,0,.35-2.29c.08-.85.13-1.73.14-2.61,0-.43,0-.84,0-1.23a8.89,8.89,0,0,0-1.25-.19l-.74,0C410.81,31.18,410.51,31.2,410.21,31.23Z" transform="translate(-6.53 -3.86)"/><path d="M427.44,30.67c-.1,1.07-.26,2.36-.48,3.89s-.47,3-.78,4.49a34.81,34.81,0,0,1-1.05,4,5.65,5.65,0,0,1-1.28,2.4l-2.4.48c-1,.19-2.07.37-3.23.53s-2.35.33-3.59.48-2.4.25-3.49.31c-2.54.15-5,.21-7.33.17a29.29,29.29,0,0,1-6.37-.75,30.7,30.7,0,0,1-.21-3.47c0-1.55-.07-3.33-.08-5.33s0-4.14,0-6.45.07-4.6.11-6.91.08-4.52.14-6.66.09-4,.11-5.72c.82-.26,1.72-.49,2.71-.71s2-.39,3-.52,1.92-.22,2.82-.28a15,15,0,0,1,2.31,0c0,.58-.06,1.42-.11,2.52s-.09,2.23-.12,3.4,0,2.24,0,3.2,0,1.63,0,2a13.48,13.48,0,0,1,2-.25l2.86-.19c1-.07,2.07-.11,3.12-.14l2.71,0a8.39,8.39,0,0,1,2.34,1.45,22,22,0,0,1,2.45,2.4,32.55,32.55,0,0,1,2.23,2.88A19.69,19.69,0,0,1,427.44,30.67Zm-12.37-.57a3.08,3.08,0,0,0-1.22-.58,10.07,10.07,0,0,0-1.85-.3,11,11,0,0,0-2,0,6.19,6.19,0,0,0-1.66.36c-.1.89-.17,1.86-.21,2.9s-.05,2.07,0,3.07,0,1.93.09,2.77.12,1.5.19,2a4.81,4.81,0,0,0,1.38.11c.48,0,1-.06,1.47-.11a10.94,10.94,0,0,0,1.43-.25c.46-.12.86-.24,1.22-.36a5.18,5.18,0,0,0,.67-1.76,23.23,23.23,0,0,0,.38-2.52q.13-1.38.15-2.79C415.1,31.71,415.1,30.86,415.07,30.1Z" transform="translate(-6.53 -3.86)"/><path d="M445.78,49.43c-2,0-4.09,0-6.09-.12s-3.83-.21-5.38-.39l-.69-.09-.49-.48a13.69,13.69,0,0,1-1.29-1.53c-.42-.57-.84-1.19-1.25-1.85s-.78-1.29-1.13-1.93a16.21,16.21,0,0,1-.87-1.84l-.12-.33v-.35c0-1.18,0-2.5,0-4V32.25c0-1.45,0-2.87.06-4.23s.08-2.57.13-3.6l0-.77.55-.54c.28-.29.65-.69,1.11-1.19s1-1.1,1.54-1.66,1.06-1.09,1.56-1.58A9.41,9.41,0,0,1,435,17.4l.43-.26.49,0c1.16-.08,2.55-.19,4.18-.33s3.42-.25,5.2-.33c1.34-.05,2.7-.08,4-.08h1.31a28.35,28.35,0,0,1,4.91.45l.48.09.38.31a17.38,17.38,0,0,1,3.18,3.35c.91,1.23,1.75,2.41,2.5,3.49l.31.45,0,.54c.08,1.06.15,2.38.21,3.94s.11,3.13.14,4.73,0,3.07,0,4.42a24,24,0,0,1-.2,3.25l-.08.53-.34.42c-.69.86-1.4,1.78-2.09,2.75a37.67,37.67,0,0,1-2.4,3l-.45.51-.68.12a37.92,37.92,0,0,1-4.85.53C449.82,49.37,447.83,49.43,445.78,49.43Zm-2-10.77c.26,0,.51,0,.77,0a7.46,7.46,0,0,0,.95,0,6.46,6.46,0,0,0,1.56-.35l.24-.09c0-1.6.08-3.35.12-5.23a45.72,45.72,0,0,0-.18-5.06h-.05c-.55,0-1.07,0-1.58.08s-.93.12-1.38.21l-.35.09v.06c-.06.62-.11,1.35-.14,2.18s-.06,1.76-.06,2.72v2.87c0,.89,0,1.68,0,2.37v.15Z" transform="translate(-6.53 -3.86)"/><path d="M460.61,41.09c-.73.92-1.45,1.86-2.15,2.84a35.88,35.88,0,0,1-2.27,2.85,36.49,36.49,0,0,1-4.6.49c-1.85.11-3.78.16-5.81.16s-4,0-6-.12-3.73-.2-5.23-.38a11.72,11.72,0,0,1-1.09-1.3c-.39-.53-.78-1.11-1.16-1.72s-.74-1.22-1.07-1.83a13,13,0,0,1-.76-1.6c0-1.17,0-2.48,0-3.91V32.25c0-1.44,0-2.83.06-4.18s.08-2.53.13-3.55c.31-.3.7-.72,1.18-1.26l1.51-1.62c.52-.55,1-1.06,1.51-1.53a7.87,7.87,0,0,1,1.22-1c1.17-.08,2.58-.18,4.22-.32s3.34-.25,5.11-.33,3.52-.1,5.23-.07a25.52,25.52,0,0,1,4.57.42,15.48,15.48,0,0,1,2.8,3c.9,1.23,1.72,2.37,2.46,3.44q.12,1.56.21,3.87c.07,1.54.11,3.1.14,4.68s0,3,0,4.37A23.25,23.25,0,0,1,460.61,41.09Zm-11.33-1.72q.08-2.86.15-6.35a49.92,49.92,0,0,0-.38-7.16l-1.89.06c-.6,0-1.17,0-1.72.09a12.41,12.41,0,0,0-1.62.25,7.91,7.91,0,0,0-1.64.55,4.16,4.16,0,0,0-.29,1.36c-.06.65-.11,1.41-.15,2.29s-.06,1.81-.06,2.8v2.87c0,.91,0,1.73,0,2.44s0,1.25,0,1.6a5.19,5.19,0,0,0,1.85.48,10.74,10.74,0,0,0,2.12,0,8.37,8.37,0,0,0,2-.46A5.46,5.46,0,0,0,449.28,39.37Z" transform="translate(-6.53 -3.86)"/><path d="M465.29,50.36A3.61,3.61,0,0,1,463.74,48a19.08,19.08,0,0,1-.45-2.32c-.11-.78-.19-1.56-.24-2.32a11.81,11.81,0,0,1,0-1.81l.15-1.68,1.69-.13c.95-.08,2-.17,3.15-.29s2.19-.25,3.23-.43,1.94-.37,2.79-.58l-.94-.15c-.8-.13-1.66-.24-2.57-.34s-1.9-.22-2.8-.35-1.8-.3-2.59-.49a8,8,0,0,1-2.35-.95l-.85-.56-.06-1a31.4,31.4,0,0,1,.51-7.47A27,27,0,0,1,464.79,20l.36-.72.78-.27a51,51,0,0,1,5.38-1.49c1.85-.4,3.74-.73,5.62-1s3.76-.4,5.63-.49c1.19-.06,2.37-.09,3.53-.09.67,0,1.33,0,2,0l1.4,0,.44,1.33a15.2,15.2,0,0,1,.71,3.76c.08,1.23.11,2.4.08,3.48l0,1.69L489,26.5c-2,.29-4,.52-6,.68-1.56.14-3.15.33-4.73.57a1.69,1.69,0,0,0-.08.39.36.36,0,0,0,0,.11c1.49.26,3,.5,4.45.73L490,30.11l.45,1a11.1,11.1,0,0,1,1,3.45,16.27,16.27,0,0,1,0,3.56,16.81,16.81,0,0,1-.71,3.51,15,15,0,0,1-1.39,3.14l-.32.53-.55.26a39.5,39.5,0,0,1-5.39,2.06c-1.84.55-3.72,1-5.59,1.38s-3.73.68-5.58,1-3.69.5-5.51.68l-.62.06Z" transform="translate(-6.53 -3.86)"/><path d="M488.71,24.52q-2.94.42-5.86.67c-2,.17-3.9.41-5.86.74a4.44,4.44,0,0,0-.76,1.91A16.1,16.1,0,0,0,476,29.9q3.16.59,6.29,1.05l6.34,1a9,9,0,0,1,.8,2.84,14.23,14.23,0,0,1,0,3.13,14.61,14.61,0,0,1-.63,3.09,13.09,13.09,0,0,1-1.2,2.73,36.08,36.08,0,0,1-5.12,2q-2.67.8-5.4,1.34c-1.82.35-3.64.66-5.48.93s-3.64.49-5.42.67c-.23-.13-.42-.51-.59-1.15a18.32,18.32,0,0,1-.4-2.08c-.1-.75-.18-1.48-.23-2.19a12.09,12.09,0,0,1,0-1.49c1-.08,2-.17,3.19-.29s2.29-.26,3.38-.45,2.1-.4,3-.63a15.55,15.55,0,0,0,2.12-.65,5.83,5.83,0,0,0,.23-1.19,5.9,5.9,0,0,0,0-1.33,3.58,3.58,0,0,0-1.37-.5c-.64-.13-1.37-.25-2.2-.38s-1.71-.24-2.65-.34-1.85-.22-2.73-.35a22.33,22.33,0,0,1-2.4-.46,5.49,5.49,0,0,1-1.74-.68,28.45,28.45,0,0,1,.48-7,24.71,24.71,0,0,1,2.23-6.6,47.71,47.71,0,0,1,5.17-1.43q2.7-.6,5.44-.94c1.83-.23,3.66-.39,5.48-.48s3.61-.1,5.36-.05a12.66,12.66,0,0,1,.61,3.26C488.71,22.4,488.73,23.5,488.71,24.52Z" transform="translate(-6.53 -3.86)"/></g><g id="Layer_1" data-name="Layer 1"><path class="cls-1" d="M34.26,36.14a20.06,20.06,0,0,1,0,3.55,33.46,33.46,0,0,1-.56,3.62,57.12,57.12,0,0,1-6.12.61c-2.1.1-4.18.16-6.24.16s-4.06,0-6-.12-3.73-.17-5.38-.27c-.2-.61-.4-1.28-.59-2s-.36-1.45-.5-2.18a17.8,17.8,0,0,1-.28-2.08,7.8,7.8,0,0,1,0-1.68q1.71-2.59,3.62-5.61l3.72-5.91q1.82-2.91,3.32-5.5t2.35-4.28a26.69,26.69,0,0,0-3,0c-1,0-2,.07-3.05.09s-2,0-3,0a15.45,15.45,0,0,1-2.92-.34A16.67,16.67,0,0,1,9,10.58a36.71,36.71,0,0,1,0-3.8c1.24,0,2.85-.18,4.81-.38s4.06-.36,6.31-.46,4.56-.11,6.91,0a29,29,0,0,1,6.59,1c0,.56.06,1.21.11,1.93s.09,1.47.12,2.22,0,1.48,0,2.19a14.16,14.16,0,0,1-.17,1.95c-1,2.14-2,4.1-3,5.9s-2,3.51-3.05,5.15-2,3.24-3.06,4.79-2,3.16-3,4.81a27.16,27.16,0,0,0,2.94.17l3.45,0h3.44C32.44,36,33.42,36.06,34.26,36.14Z" transform="translate(-6.53 -3.86)"/><path class="cls-1" d="M66,42c-.89.25-2,.49-3.32.72s-2.75.43-4.28.59-3.11.31-4.75.42-3.22.19-4.73.23-2.92,0-4.2,0a25.24,25.24,0,0,1-3.19-.32L40.38,42c-.42-.57-.82-1.16-1.22-1.77s-.76-1.21-1.09-1.8a12.14,12.14,0,0,1-.76-1.56A23,23,0,0,1,38,32a18.33,18.33,0,0,1,1.49-4.12,11.56,11.56,0,0,1,2.61-1.09c1.13-.34,2.39-.68,3.76-1s2.81-.63,4.31-.91,2.94-.54,4.32-.77c-.08-.3-.15-.65-.23-1.05A3.59,3.59,0,0,0,54,22.2a7.25,7.25,0,0,0-2.44-.8,26.75,26.75,0,0,0-3.42-.34c-1.23,0-2.49-.07-3.76-.06L41,21a19,19,0,0,1,0-2c.05-.7.14-1.37.25-2a14,14,0,0,1,.42-1.72,2.81,2.81,0,0,1,.59-1.09c1.73-.17,3.51-.31,5.33-.42s3.64-.12,5.48-.07a46.42,46.42,0,0,1,5.42.46,41.53,41.53,0,0,1,5.15,1.06A7.68,7.68,0,0,1,64.85,18a33.77,33.77,0,0,1,.78,4.26c.21,1.6.35,3.32.44,5.15s.14,3.63.16,5.4,0,3.46-.06,5.06S66.05,40.86,66,42ZM55.29,36.9c0-1.15,0-2.24-.06-3.28s0-2.12-.09-3.21c-1,.2-2,.36-2.92.48a8.73,8.73,0,0,0-2.81.86A3.77,3.77,0,0,0,49,32.91,6.2,6.2,0,0,0,49,34.28a13,13,0,0,0,.17,1.4,8.22,8.22,0,0,0,.33,1.22,5.17,5.17,0,0,0,2.33.29C52.74,37.12,53.92,37,55.29,36.9Z" transform="translate(-6.53 -3.86)"/><path class="cls-1" d="M100.45,28.16a6.73,6.73,0,0,1-.67,1.94,22.4,22.4,0,0,1-1.47,2.64q-.87,1.36-1.89,2.67a14.54,14.54,0,0,1-1.93,2.1c-1.09.33-2.25.64-3.47.93s-2.44.55-3.66.77-2.4.4-3.52.55-2.12.26-3,.31c0,.71,0,1.48,0,2.31s0,1.65.07,2.48,0,1.64.06,2.44,0,1.56-.06,2.27c-.63.08-1.37.15-2.21.23s-1.71.14-2.6.19-1.78.08-2.67.08S71.75,50,71,50c0-1.6-.11-3.41-.17-5.42s-.12-4.11-.16-6.32,0-4.43,0-6.7,0-4.44,0-6.52.06-4,.14-5.79.16-3.26.27-4.48a15.42,15.42,0,0,1,2.67-.46c1.19-.13,2.54-.22,4-.29s3.06-.1,4.7-.11H87.2c1.53,0,2.92,0,4.18.09s2.24.12,2.92.2a21.94,21.94,0,0,1,2.39,3.14,22.84,22.84,0,0,1,1.66,3.27,25.44,25.44,0,0,1,1.16,3.55C99.83,25.4,100.14,26.73,100.45,28.16ZM88.77,29.38a28.89,28.89,0,0,0-.46-4.32,18.77,18.77,0,0,0-.73-2.93,2,2,0,0,0-1.06-.75A7,7,0,0,0,85,21.06a7.3,7.3,0,0,0-1.62,0A4.88,4.88,0,0,0,82,21.4c-.05.53-.13,1.23-.23,2.1s-.18,1.78-.25,2.75-.09,2-.09,3a25.92,25.92,0,0,0,.15,2.89,6,6,0,0,0,1.53-.06,11.78,11.78,0,0,0,2-.48,12.24,12.24,0,0,0,2-.89A5.33,5.33,0,0,0,88.77,29.38Z" transform="translate(-6.53 -3.86)"/><path class="cls-1" d="M139.2,34.65q-1,1.29-1.8,2.67c-.56.91-1.13,1.82-1.72,2.71l1.4,1.33c.42.41.77.77,1,1.07a6,6,0,0,1-1.42,1.47,10,10,0,0,1-2,1.17,20.17,20.17,0,0,1-2.35.89,24.14,24.14,0,0,1-2.6.67l-1.58-1.92c-.55-.68-1.09-1.39-1.62-2.12-1.68.1-3.34.16-5,.17s-3.2,0-4.68,0-2.83,0-4.07-.1l-3.11-.11a16.44,16.44,0,0,1-1.31-1.64,24.53,24.53,0,0,1-1.36-2.14c-.43-.76-.83-1.52-1.2-2.27s-.67-1.43-.9-2c-.18-1.63-.31-3.33-.4-5.1s-.14-3.53-.15-5.29,0-3.47.07-5.13.15-3.2.25-4.6c.89-1,1.8-2.05,2.71-3.25s1.86-2.31,2.83-3.36q1.64-.3,3.78-.51c1.42-.14,2.89-.26,4.41-.34s3-.16,4.52-.2,2.89,0,4.16,0l3.3,0,2,0a12.59,12.59,0,0,1,1.66,1.68c.55.66,1.08,1.35,1.6,2.06s1,1.44,1.51,2.18.93,1.43,1.34,2.09c.12.9.24,1.94.34,3.14s.18,2.44.25,3.74.11,2.61.15,3.95.06,2.59.06,3.78,0,2.24,0,3.18S139.25,34.09,139.2,34.65Zm-13.06-4.09c0-1.17,0-2.38.08-3.64s0-2.52,0-3.78-.08-2.47-.16-3.63a24.72,24.72,0,0,0-.38-3.15,17.28,17.28,0,0,1-1.79-.11c-.66-.08-1.35-.14-2-.18a16.36,16.36,0,0,0-2.1,0,5.73,5.73,0,0,0-1.93.52c-.21,1.35-.35,2.75-.44,4.2s-.13,2.91-.13,4.37,0,2.92.07,4.39.12,2.88.19,4.25c.54.11,1.13.2,1.8.29a19,19,0,0,0,2,.17,23.46,23.46,0,0,1-1.24-2.55,13.17,13.17,0,0,1-.67-2.07,4.28,4.28,0,0,1,2.12-1.2,24.9,24.9,0,0,1,2.61-.55A18,18,0,0,0,126.14,30.56Z" transform="translate(-6.53 -3.86)"/><path class="cls-1" d="M173,15.86q0,2.37-.12,4.8c-.05,1.61-.09,3.37-.11,5.26s0,3.73,0,5.5,0,3.35.08,4.75a8.7,8.7,0,0,1-.71,1.51c-.32.55-.68,1.11-1.09,1.7s-.83,1.15-1.26,1.7-.84,1-1.22,1.47c-1.3,0-2.81.07-4.54.15s-3.53.15-5.4.21-3.73.1-5.58.1-3.54-.07-5.09-.19a12,12,0,0,1-1.07-1.25c-.41-.52-.81-1.07-1.2-1.66a18.27,18.27,0,0,1-1.07-1.75,10.83,10.83,0,0,1-.71-1.53c0-.76,0-1.72,0-2.86s0-2.38-.07-3.7-.06-2.68-.08-4.07,0-2.72,0-4,0-2.34.08-3.17a16.46,16.46,0,0,1,.21-2.19,52.37,52.37,0,0,1,5.32-.4,39.55,39.55,0,0,1,5.52.28c-.16,2-.26,3.68-.31,5.14s-.07,3-.06,4.54.06,3.07.14,4.51.16,2.86.27,4.29a6.33,6.33,0,0,0,1.68.38,11.09,11.09,0,0,0,2,.06,8,8,0,0,0,1.95-.36,4.67,4.67,0,0,0,1.54-.81c0-1.47,0-3,0-4.61s0-3.22,0-4.83,0-3.08,0-4.39,0-2.63,0-3.95a28.25,28.25,0,0,1,5.47-.54C169.24,15.94,171.11,15.92,173,15.86Z" transform="translate(-6.53 -3.86)"/><path class="cls-1" d="M204.62,42a33.82,33.82,0,0,1-3.32.72c-1.32.23-2.75.43-4.27.59s-3.11.31-4.76.42-3.22.19-4.73.23-2.91,0-4.2,0a25.44,25.44,0,0,1-3.19-.32L179,42c-.42-.57-.83-1.16-1.22-1.77s-.76-1.21-1.09-1.8A11,11,0,0,1,176,36.9a23,23,0,0,1,.68-4.93,19.36,19.36,0,0,1,1.49-4.12,11.47,11.47,0,0,1,2.62-1.09c1.13-.34,2.38-.68,3.76-1s2.81-.63,4.31-.91,2.94-.54,4.31-.77c-.07-.3-.15-.65-.23-1.05a3.71,3.71,0,0,0-.22-.82,7.24,7.24,0,0,0-2.45-.8,26.4,26.4,0,0,0-3.41-.34c-1.24,0-2.49-.07-3.76-.06l-3.44,0a16.55,16.55,0,0,1,0-2,18.27,18.27,0,0,1,.25-2,11.11,11.11,0,0,1,.42-1.72,2.69,2.69,0,0,1,.59-1.09c1.73-.17,3.5-.31,5.32-.42s3.65-.12,5.48-.07a46.24,46.24,0,0,1,5.42.46,42.07,42.07,0,0,1,5.16,1.06A7.68,7.68,0,0,1,203.5,18a33.77,33.77,0,0,1,.78,4.26c.2,1.6.35,3.32.44,5.15s.14,3.63.15,5.4,0,3.46-.06,5.06S204.7,40.86,204.62,42ZM193.94,36.9c0-1.15-.05-2.24-.06-3.28s0-2.12-.1-3.21c-1,.2-2,.36-2.92.48a8.68,8.68,0,0,0-2.8.86,3.77,3.77,0,0,0-.39,1.16,6.2,6.2,0,0,0-.07,1.37,9.39,9.39,0,0,0,.17,1.4,9.73,9.73,0,0,0,.32,1.22,5.21,5.21,0,0,0,2.33.29C191.39,37.12,192.56,37,193.94,36.9Z" transform="translate(-6.53 -3.86)"/><path class="cls-1" d="M237.87,16.13c-.35.54-.87,1.35-1.54,2.45l-2.18,3.51c-.78,1.24-1.55,2.51-2.33,3.8s-1.43,2.41-2,3.37a24.94,24.94,0,0,0,1.73,3.38c.65,1.06,1.32,2.08,2,3.08l2.06,3a28.12,28.12,0,0,1,1.87,3.13,18.52,18.52,0,0,1-2.35.59c-1,.2-1.93.35-2.92.46s-1.94.21-2.84.29l-2.16.19c-.81-1-1.59-2.08-2.33-3.11s-1.4-2-2-2.86-1.12-1.66-1.57-2.33a11.12,11.12,0,0,0-1.09-1.47,1.19,1.19,0,0,0-.57-.19.59.59,0,0,0-.36.11c-.11.08-.17.27-.17.57,0,.49,0,1.09,0,1.82s0,1.48,0,2.27,0,1.58,0,2.38-.05,1.51-.1,2.12a6.48,6.48,0,0,1-2,.42c-1,.1-2,.19-3.1.25s-2.13.1-3.11.1a9.11,9.11,0,0,1-2.08-.16c-.1-1.14-.18-2.71-.23-4.71s-.07-4.2-.05-6.6,0-4.88.07-7.41.09-4.91.14-7.14.1-4.18.15-5.88S209,8.65,209,8a16.57,16.57,0,0,1,2.5-.23c1,0,2.08,0,3.13,0s2,0,2.87.08,1.43.07,1.73.1c0,.43-.05,1.07-.07,1.91s0,1.79-.06,2.86,0,2.19,0,3.36,0,2.29,0,3.36,0,2.05.1,2.94.11,1.57.19,2.06a.54.54,0,0,0,.51.53c.29,0,.66-.21,1.09-.72l1.41-2c.59-.81,1.2-1.68,1.84-2.6l1.88-2.73q.94-1.35,1.59-2.31a18,18,0,0,1,2.38.1c.86.09,1.72.21,2.6.36s1.76.33,2.63.52Z" transform="translate(-6.53 -3.86)"/><path class="cls-1" d="M270.28,31.29c-.81.12-1.94.26-3.4.42s-3,.29-4.75.42-3.49.24-5.3.34-3.5.18-5,.23A7.45,7.45,0,0,0,252,34a3.44,3.44,0,0,0,.42,1,6.42,6.42,0,0,0,1.75.63,22,22,0,0,0,2.63.46c1,.11,2,.22,3,.32s2.05.2,3,.27,1.74.15,2.44.23a6.52,6.52,0,0,1,1.43.27,14.9,14.9,0,0,1,0,1.85,19.92,19.92,0,0,1-.24,2A15,15,0,0,1,266,42.7a1.86,1.86,0,0,1-.6,1c-1.75,0-3.66-.06-5.72-.19s-4.14-.32-6.22-.57-4.14-.6-6.15-1a51.9,51.9,0,0,1-5.54-1.49,6.38,6.38,0,0,1-1.12-2.6,22.36,22.36,0,0,1-.52-3.89,41.86,41.86,0,0,1,0-4.6,43.6,43.6,0,0,1,.55-4.69,33.46,33.46,0,0,1,1-4.22,11.62,11.62,0,0,1,1.41-3.13,13.3,13.3,0,0,1,3-1c1.31-.33,2.77-.63,4.39-.88s3.3-.48,5.05-.67,3.41-.32,4.95-.4,2.89-.09,4.06,0a8.5,8.5,0,0,1,2.41.34,19.5,19.5,0,0,1,1.53,3.52,32.32,32.32,0,0,1,1.05,4.18c.26,1.46.46,3,.59,4.5A40.11,40.11,0,0,1,270.28,31.29ZM259.1,26a15.45,15.45,0,0,0,0-2.25,5.35,5.35,0,0,0-.59-2.1l-1.24,0c-.4,0-.81.05-1.23.1s-.86.13-1.33.23a9,9,0,0,0-1.59.53c-.22.74-.44,1.4-.64,2a11.32,11.32,0,0,0-.5,2.35,20.19,20.19,0,0,0,3.95-.23C257.14,26.46,258.21,26.25,259.1,26Z" transform="translate(-6.53 -3.86)"/><path class="cls-1" d="M316.93,35a18.3,18.3,0,0,1-.06,2.27c-.06.88-.15,1.72-.26,2.52a16,16,0,0,1-.46,2.16,2.68,2.68,0,0,1-.67,1.26q-2.94,0-6.19-.16t-6.5-.44a62.47,62.47,0,0,1-6.44-1,37.88,37.88,0,0,1-6-1.72,8.53,8.53,0,0,1-1.24-3.26,33.12,33.12,0,0,1-.57-4.87,52.67,52.67,0,0,1,0-5.74,57.29,57.29,0,0,1,.61-5.88,41.21,41.21,0,0,1,1.14-5.27A17.94,17.94,0,0,1,291.93,11,14,14,0,0,1,295,9.74c1.33-.4,2.82-.75,4.46-1.07s3.34-.6,5.1-.84,3.41-.41,5-.5,2.92-.11,4.11-.07a6.05,6.05,0,0,1,2.5.44c.05.33.1.77.15,1.33s.09,1.2.11,1.91,0,1.47,0,2.27a23.78,23.78,0,0,1-.24,2.46c-1.33.11-2.57.19-3.73.25s-2.27.14-3.34.23a24.26,24.26,0,0,0-3.11.46,15.4,15.4,0,0,0-3,1c-.28,1.1-.56,2.37-.82,3.82a42.87,42.87,0,0,0-.59,4.39,26.54,26.54,0,0,0-.06,4.16,8.23,8.23,0,0,0,.74,3.13,5.25,5.25,0,0,0,1.87.72,21.87,21.87,0,0,0,2.71.41c1,.08,2,.15,3.1.21s2.07.08,3,.11,1.77.07,2.48.13A4.82,4.82,0,0,1,316.93,35Z" transform="translate(-6.53 -3.86)"/><path class="cls-1" d="M350.18,37.09c-.74.92-1.46,1.86-2.16,2.84a35.88,35.88,0,0,1-2.27,2.85,36.07,36.07,0,0,1-4.6.49c-1.85.11-3.78.16-5.8.16s-4,0-6-.12-3.73-.2-5.23-.38a9.88,9.88,0,0,1-1.09-1.3c-.4-.53-.78-1.11-1.17-1.72s-.73-1.22-1.07-1.83a14.61,14.61,0,0,1-.76-1.6c0-1.17,0-2.48,0-3.91V28.25c0-1.44,0-2.83.06-4.18s.08-2.53.13-3.55c.31-.3.7-.72,1.19-1.26s1-1.07,1.51-1.62,1-1.06,1.5-1.53a8.37,8.37,0,0,1,1.22-1c1.17-.08,2.58-.18,4.22-.32s3.35-.25,5.12-.33,3.51-.1,5.23-.07a25.31,25.31,0,0,1,4.56.42,15.51,15.51,0,0,1,2.81,3c.9,1.23,1.72,2.37,2.46,3.44q.11,1.56.21,3.87c.06,1.54.11,3.1.13,4.68s0,3,0,4.37A21.87,21.87,0,0,1,350.18,37.09Zm-11.34-1.72q.07-2.86.15-6.35a48.51,48.51,0,0,0-.38-7.16l-1.89.06c-.6,0-1.17,0-1.72.09a13,13,0,0,0-1.62.25,8.11,8.11,0,0,0-1.64.55,4.45,4.45,0,0,0-.29,1.36c-.06.65-.11,1.41-.15,2.29s-.06,1.81-.06,2.8v2.87c0,.91,0,1.73,0,2.44s0,1.25,0,1.6a5.24,5.24,0,0,0,1.85.48,10.74,10.74,0,0,0,2.12,0,8.26,8.26,0,0,0,2-.46A5.19,5.19,0,0,0,338.84,35.37Z" transform="translate(-6.53 -3.86)"/><path class="cls-1" d="M392.63,42.78a7.43,7.43,0,0,1-2.06.51,24,24,0,0,1-2.79.21c-1,0-2,0-3,0l-2.84-.18c0-.33-.06-.86-.09-1.58s-.09-1.53-.16-2.41-.12-1.79-.17-2.74-.11-1.84-.17-2.64-.12-1.49-.15-2.06a6.55,6.55,0,0,0-.1-1c-.18-.54-.43-.77-.74-.71a1,1,0,0,0-.71.59L378.5,33,377,36l-1.64,3.4c-.56,1.17-1.1,2.29-1.64,3.36-.66,0-1.31,0-2,0a11,11,0,0,1-1.9-.14c-.61-1-1.19-2-1.72-3s-1-2.08-1.49-3.07-.87-2-1.24-2.85l-1-2.35a1,1,0,0,0-.65-.55.65.65,0,0,0-.77.36,4.33,4.33,0,0,0-.28,1.19c-.09.61-.16,1.31-.21,2.11s-.1,1.67-.14,2.6-.07,1.81-.09,2.63-.05,1.58-.06,2.24,0,1.13,0,1.41a26.21,26.21,0,0,1-4.27.4,45.12,45.12,0,0,1-4.51-.21c0-1.25,0-2.73,0-4.47s.08-3.53.15-5.4.17-3.76.27-5.67.2-3.69.31-5.34.2-3.12.3-4.39.19-2.19.27-2.75a19.12,19.12,0,0,1,2.29-.53c.86-.16,1.76-.29,2.69-.4s1.86-.21,2.79-.29,1.77-.14,2.54-.19S366.48,14,367,14a8.33,8.33,0,0,1,1,0c.58,1.6,1.12,3.21,1.62,4.81a28.29,28.29,0,0,0,1.85,4.58,1.2,1.2,0,0,0,.69.67.93.93,0,0,0,.95-.1,3.06,3.06,0,0,0,.57-.85c.26-.48.55-1.05.88-1.74s.68-1.42,1-2.2.69-1.52,1-2.25.6-1.37.84-1.93.42-1,.52-1.22a15.78,15.78,0,0,1,2.79-.38c1.17-.08,2.39-.12,3.68-.13s2.54,0,3.78.07,2.26.16,3.07.29q.39,7.24.63,14.43T392.63,42.78Z" transform="translate(-6.53 -3.86)"/><path class="cls-1" d="M427.44,26.67c-.1,1.07-.26,2.36-.48,3.89s-.47,3-.78,4.49a34.81,34.81,0,0,1-1.05,4,5.65,5.65,0,0,1-1.28,2.4l-2.4.48c-1,.19-2.07.37-3.23.53s-2.35.33-3.59.48-2.4.25-3.49.31c-2.54.15-5,.21-7.33.17a29.29,29.29,0,0,1-6.37-.75,30.7,30.7,0,0,1-.21-3.47c0-1.55-.07-3.33-.08-5.33s0-4.14,0-6.45.07-4.6.11-6.91.08-4.52.14-6.66.09-4,.11-5.72c.82-.26,1.72-.49,2.71-.71s2-.39,3-.52,1.92-.22,2.82-.28a15,15,0,0,1,2.31,0c0,.58-.06,1.42-.11,2.52s-.09,2.23-.12,3.4,0,2.24,0,3.2,0,1.63,0,2a13.48,13.48,0,0,1,2-.25l2.86-.19c1-.07,2.07-.11,3.12-.14l2.71,0a8.39,8.39,0,0,1,2.34,1.45,22,22,0,0,1,2.45,2.4,32.55,32.55,0,0,1,2.23,2.88A19.69,19.69,0,0,1,427.44,26.67Zm-12.37-.57a3.08,3.08,0,0,0-1.22-.58,10.07,10.07,0,0,0-1.85-.3,11,11,0,0,0-2,0,6.19,6.19,0,0,0-1.66.36c-.1.89-.17,1.86-.21,2.9s-.05,2.07,0,3.07,0,1.93.09,2.77.12,1.5.19,2a4.81,4.81,0,0,0,1.38.11c.48,0,1-.06,1.47-.11a10.94,10.94,0,0,0,1.43-.25c.46-.12.86-.24,1.22-.36a5.18,5.18,0,0,0,.67-1.76,23.23,23.23,0,0,0,.38-2.52q.13-1.38.15-2.79C415.1,27.71,415.1,26.86,415.07,26.1Z" transform="translate(-6.53 -3.86)"/><path class="cls-1" d="M460.61,37.09c-.73.92-1.45,1.86-2.15,2.84a35.88,35.88,0,0,1-2.27,2.85,36.49,36.49,0,0,1-4.6.49c-1.85.11-3.78.16-5.81.16s-4,0-6-.12-3.73-.2-5.23-.38a11.72,11.72,0,0,1-1.09-1.3c-.39-.53-.78-1.11-1.16-1.72s-.74-1.22-1.07-1.83a13,13,0,0,1-.76-1.6c0-1.17,0-2.48,0-3.91V28.25c0-1.44,0-2.83.06-4.18s.08-2.53.13-3.55c.31-.3.7-.72,1.18-1.26l1.51-1.62c.52-.55,1-1.06,1.51-1.53a7.87,7.87,0,0,1,1.22-1c1.17-.08,2.58-.18,4.22-.32s3.34-.25,5.11-.33,3.52-.1,5.23-.07a25.52,25.52,0,0,1,4.57.42,15.48,15.48,0,0,1,2.8,3c.9,1.23,1.72,2.37,2.46,3.44q.12,1.56.21,3.87c.07,1.54.11,3.1.14,4.68s0,3,0,4.37A23.25,23.25,0,0,1,460.61,37.09Zm-11.33-1.72q.08-2.86.15-6.35a49.92,49.92,0,0,0-.38-7.16l-1.89.06c-.6,0-1.17,0-1.72.09a12.41,12.41,0,0,0-1.62.25,7.91,7.91,0,0,0-1.64.55,4.16,4.16,0,0,0-.29,1.36c-.06.65-.11,1.41-.15,2.29s-.06,1.81-.06,2.8v2.87c0,.91,0,1.73,0,2.44s0,1.25,0,1.6a5.19,5.19,0,0,0,1.85.48,10.74,10.74,0,0,0,2.12,0,8.37,8.37,0,0,0,2-.46A5.46,5.46,0,0,0,449.28,35.37Z" transform="translate(-6.53 -3.86)"/><path class="cls-1" d="M488.71,20.52q-2.94.42-5.86.67c-2,.17-3.9.41-5.86.74a4.44,4.44,0,0,0-.76,1.91A16.1,16.1,0,0,0,476,25.9q3.16.59,6.29,1.05l6.34,1a9,9,0,0,1,.8,2.84,14.23,14.23,0,0,1,0,3.13,14.61,14.61,0,0,1-.63,3.09,13.09,13.09,0,0,1-1.2,2.73,36.08,36.08,0,0,1-5.12,2q-2.67.8-5.4,1.34c-1.82.35-3.64.66-5.48.93s-3.64.49-5.42.67c-.23-.13-.42-.51-.59-1.15a18.32,18.32,0,0,1-.4-2.08c-.1-.75-.18-1.48-.23-2.19a12.09,12.09,0,0,1,0-1.49c1-.08,2-.17,3.19-.29s2.29-.26,3.38-.45,2.1-.4,3-.63a15.55,15.55,0,0,0,2.12-.65,5.83,5.83,0,0,0,.23-1.19,5.9,5.9,0,0,0,0-1.33,3.58,3.58,0,0,0-1.37-.5c-.64-.13-1.37-.25-2.2-.38s-1.71-.24-2.65-.34-1.85-.22-2.73-.35a22.33,22.33,0,0,1-2.4-.46,5.49,5.49,0,0,1-1.74-.68,28.45,28.45,0,0,1,.48-7,24.71,24.71,0,0,1,2.23-6.6,47.71,47.71,0,0,1,5.17-1.43q2.7-.6,5.44-.94c1.83-.23,3.66-.39,5.48-.48s3.61-.1,5.36,0a12.66,12.66,0,0,1,.61,3.26C488.71,18.4,488.73,19.5,488.71,20.52Z" transform="translate(-6.53 -3.86)"/><path class="cls-1" d="M41.5,81.94c-.46,0-.93,0-1.4,0s-1.14,0-2,.06a8.67,8.67,0,0,0-.16-1.07,2.31,2.31,0,0,0-.42-.94A3.11,3.11,0,0,0,36,79a6,6,0,0,0-2-.24,6.82,6.82,0,0,0-1.93.38,3.58,3.58,0,0,0-1.42.87A2.27,2.27,0,0,0,30,81c-.1.43-.17.81-.23,1.15l-1.51,0c-.51,0-1.18,0-2,0,.19-.82.42-1.86.7-3.14s.57-2.68.86-4.22.59-3.13.87-4.81.5-3.32.67-4.93l1.67.07,2.11,0q1.13,0,2.31,0c.8,0,1.57,0,2.32-.07.11.73.29,1.73.52,3s.49,2.66.81,4.19.67,3.13,1.07,4.8S41,80.38,41.5,81.94Zm-5.41-6.86a2.15,2.15,0,0,0,.19-.86,8.24,8.24,0,0,0-.06-1.37,14.33,14.33,0,0,0-.31-1.59,8.12,8.12,0,0,0-.53-1.51,4,4,0,0,0-.76-1.11,1.24,1.24,0,0,0-1-.37,1.56,1.56,0,0,0-1,.52A4.48,4.48,0,0,0,31.9,70a7.19,7.19,0,0,0-.47,1.53,11.52,11.52,0,0,0-.21,1.6,8.67,8.67,0,0,0,0,1.38,2,2,0,0,0,.28.89,1.61,1.61,0,0,0,.92.55A4.22,4.22,0,0,0,33.8,76a4,4,0,0,0,1.35-.28A1.94,1.94,0,0,0,36.09,75.08Z" transform="translate(-6.53 -3.86)"/><path class="cls-1" d="M60.85,74.47l-1.79-.07a11.88,11.88,0,0,0-2.07.07,7.43,7.43,0,0,0-.23-1,3.29,3.29,0,0,0-.43-.93,2.48,2.48,0,0,0-.69-.68,1.65,1.65,0,0,0-.94-.27,1.94,1.94,0,0,0-.9.15,2.43,2.43,0,0,0-.72.47,3.41,3.41,0,0,0-.51.64,1.9,1.9,0,0,0-.25.67c0,.27-.1.59-.14,1a10.7,10.7,0,0,0-.09,1.16c0,.41,0,.81,0,1.21a6.07,6.07,0,0,0,.08,1,3.06,3.06,0,0,0,.37,1.08,3,3,0,0,0,.61.74,2.56,2.56,0,0,0,.75.43,2.48,2.48,0,0,0,.79.14,2.58,2.58,0,0,0,.79-.14,2,2,0,0,0,.72-.46,2.16,2.16,0,0,0,.5-.84,3.25,3.25,0,0,0,.12-1.26,14.6,14.6,0,0,0,2.08.12,16,16,0,0,0,1.93-.14q-.37,3.15-1.62,4a7.69,7.69,0,0,1-1,.55,6.81,6.81,0,0,1-1.05.35,8,8,0,0,1-1.16.21q-.63.06-1.41.06a8,8,0,0,1-3.13-.55,4.58,4.58,0,0,1-1.9-1.33,4.23,4.23,0,0,1-.65-1.33,11.24,11.24,0,0,1-.36-1.69A15.22,15.22,0,0,1,48.43,76a15.66,15.66,0,0,1,.08-1.62,6.76,6.76,0,0,1,.42-1.63A5.63,5.63,0,0,1,50,70.94a6.15,6.15,0,0,1,1.86-1.42,6,6,0,0,1,2.78-.59,8.21,8.21,0,0,1,2.87.4,8,8,0,0,1,1.88,1,2.82,2.82,0,0,1,1,1.61A12.87,12.87,0,0,1,60.85,74.47Z" transform="translate(-6.53 -3.86)"/><path class="cls-1" d="M73.9,82.4a20.44,20.44,0,0,0-2.44,0l-2.93.17c-1,.05-1.93.07-2.82.05a6.72,6.72,0,0,1-2.14-.33,2,2,0,0,1-1-.74A3.33,3.33,0,0,1,62,80.35a5.17,5.17,0,0,1-.14-1.5,5.61,5.61,0,0,1,.3-1.53A4.53,4.53,0,0,1,63,76a3.47,3.47,0,0,1,1.23-1,6.37,6.37,0,0,1,1.89-.51l2.07-.24a7.26,7.26,0,0,0,1.7-.38,1,1,0,0,0,.76-.9,1.26,1.26,0,0,0-.43-1.15A2.59,2.59,0,0,0,69,71.3a2.22,2.22,0,0,0-.85,0,2.29,2.29,0,0,0-.81.32,2,2,0,0,0-.64.63,2.42,2.42,0,0,0-.34,1l-1.85,0c-.66,0-1.29,0-1.88,0a3.61,3.61,0,0,1,.57-2.08,4.2,4.2,0,0,1,1.45-1.33,6.68,6.68,0,0,1,2-.72,11.27,11.27,0,0,1,2.15-.21,9.53,9.53,0,0,1,2,.2,5,5,0,0,1,1.61.66A3.31,3.31,0,0,1,73.46,71a3.64,3.64,0,0,1,.42,1.81c0,1.56,0,3.16-.09,4.79A40.53,40.53,0,0,0,73.9,82.4Zm-3.68-2.8a2.15,2.15,0,0,0,.12-2.11,1.86,1.86,0,0,0-.74-.73,2.29,2.29,0,0,0-1.16-.28,5.22,5.22,0,0,0-1.06.1,2.41,2.41,0,0,0-.9.37,1.88,1.88,0,0,0-.63.71,2.56,2.56,0,0,0-.23,1.15,1.48,1.48,0,0,0,.61,1.32,2.61,2.61,0,0,0,1.4.44,4.57,4.57,0,0,0,1.55-.24A1.85,1.85,0,0,0,70.22,79.6Z" transform="translate(-6.53 -3.86)"/><path class="cls-1" d="M79.72,64.69c0,.61-.07,1.36-.1,2.24s-.06,1.84-.09,2.88,0,2.13,0,3.25,0,2.23,0,3.3,0,2.1.08,3.08.08,1.83.15,2.57c-.47,0-1-.05-1.59-.05s-1.3.05-2.14.13c.06-1,.12-2.13.18-3.44s.08-2.73.08-4.24,0-3.1,0-4.74-.11-3.28-.21-4.93h1.65C78.27,64.74,79,64.73,79.72,64.69Z" transform="translate(-6.53 -3.86)"/><path class="cls-1" d="M94,74.47l-1.79-.07a11.88,11.88,0,0,0-2.07.07,7.43,7.43,0,0,0-.23-1,3.6,3.6,0,0,0-.43-.93,2.48,2.48,0,0,0-.69-.68,1.65,1.65,0,0,0-.94-.27,1.94,1.94,0,0,0-.9.15,2.43,2.43,0,0,0-.72.47,2.76,2.76,0,0,0-.51.64,1.73,1.73,0,0,0-.25.67c-.06.27-.1.59-.15,1s-.07.76-.08,1.16,0,.81,0,1.21a7.18,7.18,0,0,0,.09,1,3.06,3.06,0,0,0,.37,1.08,3,3,0,0,0,.61.74,2.56,2.56,0,0,0,.75.43,2.27,2.27,0,0,0,1.57,0,2,2,0,0,0,.73-.46,2.15,2.15,0,0,0,.49-.84,3.24,3.24,0,0,0,.13-1.26,14.51,14.51,0,0,0,2.08.12,16,16,0,0,0,1.93-.14q-.37,3.15-1.62,4a7.78,7.78,0,0,1-1,.55,6.68,6.68,0,0,1-1,.35,7.88,7.88,0,0,1-1.17.21c-.41,0-.88.06-1.4.06a8,8,0,0,1-3.13-.55,4.58,4.58,0,0,1-1.9-1.33A4.23,4.23,0,0,1,82,79.44a11.24,11.24,0,0,1-.36-1.69A15.22,15.22,0,0,1,81.55,76a15.86,15.86,0,0,1,.07-1.62A7.84,7.84,0,0,1,82,72.71a5.86,5.86,0,0,1,1.07-1.77,5.86,5.86,0,0,1,4.64-2,7.63,7.63,0,0,1,4.75,1.35,2.82,2.82,0,0,1,1,1.61A12.87,12.87,0,0,1,94,74.47Z" transform="translate(-6.53 -3.86)"/><path class="cls-1" d="M107.58,70.1c0,.71,0,1.36,0,1.93s0,1.14,0,1.69,0,1.11-.07,1.67,0,1.17-.09,1.85c-.05,1-.07,1.84-.07,2.56s0,1.45,0,2.16c-.65,0-1.3,0-2,0s-1.3.06-1.91.12l-1.78.14q-.86.06-1.59.06a5.69,5.69,0,0,1-2.63-.5,3.54,3.54,0,0,1-1.43-1.33A3.76,3.76,0,0,1,95.73,79c-.07-.7-.13-1.52-.17-2.48s-.06-2-.06-3.12,0-2.25.07-3.37c.73,0,1.37,0,1.93,0h1.55c0,.66-.08,1.35-.08,2.07s0,1.4,0,2,0,1.23.07,1.75.07.91.1,1.17a3.57,3.57,0,0,0,.31,1,3.44,3.44,0,0,0,.69,1,2.54,2.54,0,0,0,1,.66,2,2,0,0,0,1.32,0,1.85,1.85,0,0,0,1.27-1,4.68,4.68,0,0,0,.33-1.63c0-.22,0-.59,0-1.13s0-1.13,0-1.8,0-1.36,0-2.08,0-1.37-.11-1.94c.7,0,1.33,0,1.9,0Z" transform="translate(-6.53 -3.86)"/><path class="cls-1" d="M113.3,64.69c0,.61-.07,1.36-.11,2.24s-.06,1.84-.09,2.88,0,2.13,0,3.25,0,2.23,0,3.3,0,2.1.07,3.08.09,1.83.16,2.57c-.48,0-1-.05-1.59-.05s-1.3.05-2.15.13c.07-1,.13-2.13.18-3.44s.08-2.73.09-4.24,0-3.1,0-4.74-.1-3.28-.2-4.93h1.65C111.85,64.74,112.53,64.73,113.3,64.69Z" transform="translate(-6.53 -3.86)"/><path class="cls-1" d="M127,82.4a20.44,20.44,0,0,0-2.44,0l-2.93.17c-1,.05-1.93.07-2.82.05a6.72,6.72,0,0,1-2.14-.33,2,2,0,0,1-1-.74,3.33,3.33,0,0,1-.58-1.23,5.17,5.17,0,0,1-.14-1.5,5.61,5.61,0,0,1,.3-1.53A4.53,4.53,0,0,1,116,76a3.47,3.47,0,0,1,1.23-1,6.37,6.37,0,0,1,1.89-.51l2.07-.24a7.26,7.26,0,0,0,1.7-.38,1,1,0,0,0,.76-.9,1.26,1.26,0,0,0-.43-1.15,2.59,2.59,0,0,0-1.17-.5,2.22,2.22,0,0,0-.85,0,2.29,2.29,0,0,0-.81.32,2,2,0,0,0-.64.63,2.42,2.42,0,0,0-.34,1l-1.85,0c-.66,0-1.29,0-1.88,0a3.61,3.61,0,0,1,.57-2.08,4.2,4.2,0,0,1,1.45-1.33,6.68,6.68,0,0,1,2-.72,11.27,11.27,0,0,1,2.15-.21,9.53,9.53,0,0,1,2,.2,5,5,0,0,1,1.61.66A3.31,3.31,0,0,1,126.54,71a3.64,3.64,0,0,1,.42,1.81c0,1.56,0,3.16-.09,4.79A40.53,40.53,0,0,0,127,82.4Zm-3.68-2.8a2.15,2.15,0,0,0,.12-2.11,1.86,1.86,0,0,0-.74-.73,2.29,2.29,0,0,0-1.16-.28,5.22,5.22,0,0,0-1.06.1,2.41,2.41,0,0,0-.9.37,1.88,1.88,0,0,0-.63.71,2.56,2.56,0,0,0-.23,1.15,1.48,1.48,0,0,0,.61,1.32,2.61,2.61,0,0,0,1.4.44,4.57,4.57,0,0,0,1.55-.24A1.85,1.85,0,0,0,123.3,79.6Z" transform="translate(-6.53 -3.86)"/><path class="cls-1" d="M141.31,75.72c0,.55,0,1.11,0,1.65a6.58,6.58,0,0,1-.21,1.55,4.48,4.48,0,0,1-.61,1.38,3.94,3.94,0,0,1-1.23,1.16,6.61,6.61,0,0,1-.95.49,7.31,7.31,0,0,1-1,.32,9.73,9.73,0,0,1-1.16.18c-.42,0-.9,0-1.46,0a8.52,8.52,0,0,1-1.75-.18,6.09,6.09,0,0,1-1.59-.55,4.51,4.51,0,0,1-1.26-.94,3.31,3.31,0,0,1-.76-1.36,9.14,9.14,0,0,1-.27-2.83c0-1.12.11-2.39.19-3.79.07-1.19.12-2.4.14-3.64s0-2.44,0-3.63a13.8,13.8,0,0,0,2,.12c.59,0,1.11,0,1.55-.07a20.65,20.65,0,0,0,0,2.25,1.53,1.53,0,0,0,.6,1.28,2.7,2.7,0,0,0,1.22.37,17.64,17.64,0,0,0,1.94.15c.72,0,1.45,0,2.21,0l2-.06a7.77,7.77,0,0,0,0,1.19c0,.44.05.87.06,1.27-.66,0-1.37,0-2.13,0s-1.49,0-2.18.09a15.66,15.66,0,0,0-1.82.22,1.79,1.79,0,0,0-1,.39,6,6,0,0,0-.78,1,3.53,3.53,0,0,0-.38.91,3.82,3.82,0,0,0-.11,1v1.2a4.41,4.41,0,0,0,.24,1.54,3.14,3.14,0,0,0,.62,1,2.32,2.32,0,0,0,.85.6,2.19,2.19,0,0,0,.93.17,2.06,2.06,0,0,0,1.18-.44,2.47,2.47,0,0,0,.73-1,4.37,4.37,0,0,0,.35-1.38,9.56,9.56,0,0,0,0-1.61c.65,0,1.32,0,2,0Z" transform="translate(-6.53 -3.86)"/><path class="cls-1" d="M154.87,74.07a8.86,8.86,0,0,1,0,.9c0,.43,0,.92,0,1.46s-.07,1.09-.13,1.65a8.81,8.81,0,0,1-.27,1.47,2.91,2.91,0,0,1-.59,1,5.14,5.14,0,0,1-1.08.92,6.6,6.6,0,0,1-1.44.68,5.83,5.83,0,0,1-1.69.33,13.23,13.23,0,0,1-1.66,0,7.15,7.15,0,0,1-1.42-.19,5.55,5.55,0,0,1-1.28-.45,10,10,0,0,1-1.25-.76,3.23,3.23,0,0,1-.88-1,5,5,0,0,1-.48-1.3,8.41,8.41,0,0,1-.2-1.55c0-.55,0-1.13,0-1.74a8.06,8.06,0,0,1,.22-1.68,8.83,8.83,0,0,1,.54-1.55A6.6,6.6,0,0,1,144,71a3.63,3.63,0,0,1,1-.86,5.84,5.84,0,0,1,2.85-.84,14.49,14.49,0,0,1,3.27.23,4.49,4.49,0,0,1,1.62.62,4.3,4.3,0,0,1,1.14,1.06,4.61,4.61,0,0,1,.72,1.35A6.2,6.2,0,0,1,154.87,74.07Zm-3.56,3.55a12.32,12.32,0,0,0,.08-1.82,11.54,11.54,0,0,0-.16-1.65,5.29,5.29,0,0,0-.41-1.29,1.8,1.8,0,0,0-.67-.78,2.63,2.63,0,0,0-1.1-.31,2.74,2.74,0,0,0-1.11.14,2.54,2.54,0,0,0-.94.55,2,2,0,0,0-.56,1,9.16,9.16,0,0,0-.18,1c0,.38-.08.76-.1,1.15a11,11,0,0,0,0,1.15c0,.37,0,.68.07.94a5.17,5.17,0,0,0,.27.94,3,3,0,0,0,.52.86,2.45,2.45,0,0,0,.83.61,2.41,2.41,0,0,0,1.13.2,2,2,0,0,0,.92-.3,2.63,2.63,0,0,0,.73-.64,3.27,3.27,0,0,0,.48-.83A2.77,2.77,0,0,0,151.31,77.62Z" transform="translate(-6.53 -3.86)"/><path class="cls-1" d="M168.71,75.08c-.44,0-1,0-1.61-.06s-1.34,0-2.12,0a5.44,5.44,0,0,0-.67-2.71,1.78,1.78,0,0,0-1.77-.8,2.65,2.65,0,0,0-1.5.62,2.72,2.72,0,0,0-.86,1.9c0,.27-.06.7-.08,1.29s0,1.27,0,2,0,1.54,0,2.35,0,1.57.1,2.28c-.43,0-.94,0-1.54,0s-1.28,0-2,.07c0-.87.06-1.85.07-2.94s0-2.2,0-3.31,0-2.2-.07-3.23-.08-1.91-.15-2.64c1.07,0,2.06-.1,3-.2s1.9-.2,2.91-.28a13.39,13.39,0,0,1,2.83,0,5.16,5.16,0,0,1,2.43,1A2.55,2.55,0,0,1,168.5,72,14.25,14.25,0,0,1,168.71,75.08Z" transform="translate(-6.53 -3.86)"/><path class="cls-1" d="M187.73,70.1c-.42,0-1,0-1.72,0s-1.5.06-2.31,0a9.27,9.27,0,0,0-.09-1.33,3.05,3.05,0,0,0-.35-1.08,1.73,1.73,0,0,0-.68-.71,1.93,1.93,0,0,0-1.12-.21,2.33,2.33,0,0,0-1.54.71,3,3,0,0,0-.72,2c0,.3,0,.61,0,.93a5.51,5.51,0,0,0,.1.91,3.21,3.21,0,0,0,.27.81,1.4,1.4,0,0,0,.5.6,3.59,3.59,0,0,0,1.19.48,13.39,13.39,0,0,0,1.7.28c.63.07,1.3.11,2,.13s1.4,0,2.08,0c0,.34-.06.73-.07,1.17s0,.87,0,1.29c-.68,0-1.39,0-2.14,0s-1.44.1-2.1.19a10.35,10.35,0,0,0-1.74.37,2,2,0,0,0-1,.58,2.76,2.76,0,0,0-.5,1,6.4,6.4,0,0,0-.21,1.25,9.16,9.16,0,0,0,0,1.28c0,.42,0,.8.08,1.14l-1.69,0a14.32,14.32,0,0,0-1.89.08q0-1.39.06-2.64c0-.83,0-1.64,0-2.44s0-1.59,0-2.39-.05-1.61-.08-2.46a17.78,17.78,0,0,1,.1-3.16,5.68,5.68,0,0,1,.8-2.39,4,4,0,0,1,1.8-1.5,7.91,7.91,0,0,1,3.16-.52,14.07,14.07,0,0,1,2.83.25,4.17,4.17,0,0,1,1.88.89,3.72,3.72,0,0,1,1.07,1.72A10.13,10.13,0,0,1,187.73,70.1Z" transform="translate(-6.53 -3.86)"/><path class="cls-1" d="M201.37,75.08c-.44,0-1,0-1.61-.06s-1.34,0-2.12,0a5.44,5.44,0,0,0-.67-2.71,1.78,1.78,0,0,0-1.77-.8,2.65,2.65,0,0,0-1.5.62,2.72,2.72,0,0,0-.86,1.9c0,.27-.06.7-.08,1.29s0,1.27,0,2,0,1.54,0,2.35,0,1.57.1,2.28c-.42,0-.94,0-1.54,0s-1.28,0-2,.07c0-.87.06-1.85.07-2.94s0-2.2,0-3.31,0-2.2-.07-3.23-.08-1.91-.15-2.64c1.07,0,2.06-.1,3-.2s1.9-.2,2.91-.28a13.39,13.39,0,0,1,2.83,0,5.16,5.16,0,0,1,2.43,1,2.5,2.5,0,0,1,.88,1.53A14.25,14.25,0,0,1,201.37,75.08Z" transform="translate(-6.53 -3.86)"/><path class="cls-1" d="M214.81,74.07c0,.16,0,.47,0,.9s0,.92,0,1.46-.06,1.09-.12,1.65a8.81,8.81,0,0,1-.27,1.47,2.79,2.79,0,0,1-.6,1,4.68,4.68,0,0,1-1.08.92,6.52,6.52,0,0,1-1.43.68,5.9,5.9,0,0,1-1.69.33,13.23,13.23,0,0,1-1.66,0,7.06,7.06,0,0,1-1.42-.19,5.8,5.8,0,0,1-1.29-.45,10.64,10.64,0,0,1-1.24-.76,3.1,3.1,0,0,1-.88-1,5,5,0,0,1-.48-1.3,8.41,8.41,0,0,1-.2-1.55c0-.55,0-1.13,0-1.74a8.39,8.39,0,0,1,.77-3.23A6.13,6.13,0,0,1,204,71a3.6,3.6,0,0,1,1-.86,5.88,5.88,0,0,1,2.86-.84,14.44,14.44,0,0,1,3.26.23,4.47,4.47,0,0,1,1.63.62,4.3,4.3,0,0,1,1.14,1.06,4.58,4.58,0,0,1,.71,1.35A6.22,6.22,0,0,1,214.81,74.07Zm-3.56,3.55a13.86,13.86,0,0,0,.08-1.82,10.21,10.21,0,0,0-.17-1.65,5.3,5.3,0,0,0-.4-1.29,1.82,1.82,0,0,0-.68-.78,2.59,2.59,0,0,0-1.09-.31,2.81,2.81,0,0,0-1.12.14,2.62,2.62,0,0,0-.94.55,2,2,0,0,0-.55,1,9.16,9.16,0,0,0-.18,1,10.92,10.92,0,0,0-.1,1.15,11,11,0,0,0,0,1.15c0,.37,0,.68.07.94a4.48,4.48,0,0,0,.27.94,3,3,0,0,0,.52.86,2.41,2.41,0,0,0,.82.61,2.45,2.45,0,0,0,1.14.2,2.13,2.13,0,0,0,.92-.3,2.78,2.78,0,0,0,.73-.64,3.27,3.27,0,0,0,.48-.83A3,3,0,0,0,211.25,77.62Z" transform="translate(-6.53 -3.86)"/><path class="cls-1" d="M237,82l-1.53,0c-.59,0-1.35,0-2.3.1,0-.61,0-1.24.06-1.91s0-1.32,0-2,0-1.33,0-2a19,19,0,0,0-.17-1.89,2.39,2.39,0,0,0-.86-1.75,1.69,1.69,0,0,0-1.39-.26,2.83,2.83,0,0,0-1.32.78,2.44,2.44,0,0,0-.72,1.33q-.1.69-.15,1.59c0,.6-.06,1.23-.08,1.89s0,1.33,0,2,0,1.33,0,1.94h-1.49c-.28,0-.6,0-.95,0l-1.27.08c0-1,.08-2,.08-3.13,0-.76,0-1.49,0-2.19a15.75,15.75,0,0,0-.16-1.87,3,3,0,0,0-.8-1.83,1.86,1.86,0,0,0-1.34-.52,2.07,2.07,0,0,0-1.33.65,3,3,0,0,0-.8,1.67c-.08.48-.14,1-.18,1.6s-.06,1.22-.07,1.86,0,1.29,0,1.94,0,1.28.05,1.87c-.44,0-1,0-1.53,0s-1.34,0-2.31.06c0-.58.1-1.32.15-2.24s.09-1.91.12-3,0-2.22,0-3.4-.07-2.31-.15-3.41c.54,0,1.13.06,1.76.07s1.3,0,2,0,1.36,0,2,0,1.32,0,1.93-.07l2.22-.18,2.78-.26c1-.06,1.88-.1,2.73-.11a11.45,11.45,0,0,1,2.12.14,2.45,2.45,0,0,1,.78.29,3.4,3.4,0,0,1,.86.7,4.4,4.4,0,0,1,.74,1.14,4.88,4.88,0,0,1,.39,1.65c0,.68.08,1.38.09,2.11s0,1.46,0,2.2,0,1.47,0,2.19S236.94,81.25,237,82Z" transform="translate(-6.53 -3.86)"/><path class="cls-1" d="M256.71,75.72c0,.55,0,1.11,0,1.65a7.15,7.15,0,0,1-.2,1.55,4.73,4.73,0,0,1-.61,1.38,3.87,3.87,0,0,1-1.24,1.16,6.13,6.13,0,0,1-1,.49,7.31,7.31,0,0,1-1,.32,9.42,9.42,0,0,1-1.16.18c-.41,0-.9,0-1.46,0a8.59,8.59,0,0,1-1.75-.18,6.22,6.22,0,0,1-1.59-.55,4.33,4.33,0,0,1-1.25-.94,3.33,3.33,0,0,1-.77-1.36,9.18,9.18,0,0,1-.26-2.83c0-1.12.1-2.39.19-3.79.07-1.19.11-2.4.14-3.64s0-2.44,0-3.63a13.75,13.75,0,0,0,1.95.12c.59,0,1.11,0,1.55-.07,0,.88,0,1.63,0,2.25a1.53,1.53,0,0,0,.6,1.28,2.74,2.74,0,0,0,1.22.37,17.64,17.64,0,0,0,1.94.15c.72,0,1.46,0,2.21,0l2.05-.06a7.69,7.69,0,0,0,0,1.19c0,.44,0,.87.07,1.27-.66,0-1.38,0-2.14,0s-1.49,0-2.18.09a15.66,15.66,0,0,0-1.82.22,1.83,1.83,0,0,0-1,.39,5.45,5.45,0,0,0-.77,1,3.57,3.57,0,0,0-.39.91,4.32,4.32,0,0,0-.11,1v1.2a4.41,4.41,0,0,0,.24,1.54,3.14,3.14,0,0,0,.62,1,2.41,2.41,0,0,0,.85.6,2.24,2.24,0,0,0,.93.17,2.06,2.06,0,0,0,1.18-.44,2.49,2.49,0,0,0,.74-1,4.37,4.37,0,0,0,.34-1.38,10.72,10.72,0,0,0,0-1.61c.64,0,1.32,0,2,0Z" transform="translate(-6.53 -3.86)"/><path class="cls-1" d="M270.43,82H268l-1.29.06a11.91,11.91,0,0,1,.16-1.52,10.57,10.57,0,0,0,.12-1.6c0-.64,0-1.28,0-1.9a10.55,10.55,0,0,0-.23-1.76,2.23,2.23,0,0,0-2.37-1.9,2.66,2.66,0,0,0-1.46.55,2.27,2.27,0,0,0-.89,1.38,7.88,7.88,0,0,0-.19,1.43c0,.55,0,1.13,0,1.72s0,1.19.06,1.8,0,1.19.06,1.73c-.44,0-.94,0-1.49,0s-1.3,0-2.24.06c0-.7.07-1.64.12-2.85s.09-2.57.12-4.11,0-3.19,0-5-.08-3.53-.18-5.31c.44,0,1,.06,1.6.08s1.35,0,2.16,0c0,.37-.1.79-.14,1.26s-.07.93-.08,1.41a11.49,11.49,0,0,0,.06,1.34,4.07,4.07,0,0,0,.24,1.1,1.24,1.24,0,0,0,.54.61,2.49,2.49,0,0,0,.84.25,5.34,5.34,0,0,0,1,0l.91-.1a7.55,7.55,0,0,1,1.83,0,3.56,3.56,0,0,1,1.54.51,3.15,3.15,0,0,1,1.1,1.23,5.5,5.5,0,0,1,.54,2.16c.05.67.07,1.31.07,1.91s0,1.2,0,1.8,0,1.19,0,1.79S270.39,81.29,270.43,82Z" transform="translate(-6.53 -3.86)"/><path class="cls-1" d="M284.37,76.66c-1.79,0-3.29,0-4.5,0a23.25,23.25,0,0,0-2.81.28,1.8,1.8,0,0,0-.84.29,1.36,1.36,0,0,0-.45.48,1.37,1.37,0,0,0-.15.55,3.68,3.68,0,0,0,0,.48,1.85,1.85,0,0,0,.93,1.33,3,3,0,0,0,1.69.45,2.3,2.3,0,0,0,.9-.23,2.39,2.39,0,0,0,.69-.54,2.62,2.62,0,0,0,.45-.73,2.39,2.39,0,0,0,.19-.81c.66,0,1.34,0,2,0s1.26,0,1.72,0a2.93,2.93,0,0,1-.09.86,5.49,5.49,0,0,1-.32.91,3.86,3.86,0,0,1-.49.84,3,3,0,0,1-.65.64,6.93,6.93,0,0,1-2.11,1,9.59,9.59,0,0,1-2.67.35,6.86,6.86,0,0,1-2.77-.5,5.5,5.5,0,0,1-1.8-1.23,4.86,4.86,0,0,1-1-1.59A6.16,6.16,0,0,1,271.9,78a15.93,15.93,0,0,1,0-3.31,7.72,7.72,0,0,1,.83-2.84,5.22,5.22,0,0,1,1.95-2,6.35,6.35,0,0,1,3.27-.76,9.16,9.16,0,0,1,3.19.48,4.49,4.49,0,0,1,2,1.45,5.79,5.79,0,0,1,1,2.38A14.52,14.52,0,0,1,284.37,76.66Zm-3.66-2.49a1.91,1.91,0,0,0,0-1.11,2.5,2.5,0,0,0-.54-.93,2.59,2.59,0,0,0-.87-.63,2.45,2.45,0,0,0-1-.23,2.4,2.4,0,0,0-1,.23,2.82,2.82,0,0,0-.9.63,2.89,2.89,0,0,0-.6,1,2.13,2.13,0,0,0-.07,1.18q.09.44.81.57a6.58,6.58,0,0,0,1.57.09c.31,0,.6-.05.89-.09a6.78,6.78,0,0,0,.78-.15,2.6,2.6,0,0,0,.58-.22A.5.5,0,0,0,280.71,74.17Z" transform="translate(-6.53 -3.86)"/><path class="cls-1" d="M305.53,71.65c-.53,0-1.15-.06-1.87-.07s-1.45,0-2.17,0a6.75,6.75,0,0,0-.75-3.52,2.4,2.4,0,0,0-2.15-1.2,2.35,2.35,0,0,0-1.89.89,4.44,4.44,0,0,0-.9,2.51c-.05.42-.08,1-.09,1.58s0,1.26,0,1.91,0,1.29.08,1.91.07,1.13.12,1.53a3.5,3.5,0,0,0,.25.92,2.72,2.72,0,0,0,.52.82,2.59,2.59,0,0,0,.77.59,2.4,2.4,0,0,0,1,.21,2.35,2.35,0,0,0,2.2-1.09,7,7,0,0,0,.8-3c.74,0,1.45.08,2.12.09a17,17,0,0,0,1.81-.06,11.33,11.33,0,0,1-.4,3.16,4,4,0,0,1-1.27,2.07A6.18,6.18,0,0,1,301.49,82a12.4,12.4,0,0,1-3.38.42,8.93,8.93,0,0,1-3.18-.49,5.28,5.28,0,0,1-2-1.24,4.34,4.34,0,0,1-1-1.69,7.63,7.63,0,0,1-.38-1.84c0-.41-.06-.9-.08-1.47s0-1.19,0-1.83,0-1.3.06-2,.08-1.29.14-1.89.14-1.14.23-1.63a5.28,5.28,0,0,1,.32-1.13,4.09,4.09,0,0,1,.89-1.23,6.2,6.2,0,0,1,1.37-1,7.15,7.15,0,0,1,1.75-.67,7.68,7.68,0,0,1,2-.25,11.45,11.45,0,0,1,3.26.41,6.33,6.33,0,0,1,2.43,1.35,3.62,3.62,0,0,1,.61.75,4.45,4.45,0,0,1,.49,1.13,9.35,9.35,0,0,1,.36,1.65A19.78,19.78,0,0,1,305.53,71.65Z" transform="translate(-6.53 -3.86)"/><path class="cls-1" d="M311.19,64.69c0,.61-.07,1.36-.1,2.24s-.07,1.84-.09,2.88,0,2.13-.05,3.25,0,2.23,0,3.3,0,2.1.08,3.08.08,1.83.15,2.57c-.48,0-1-.05-1.59-.05s-1.3.05-2.14.13c.06-1,.12-2.13.17-3.44s.08-2.73.09-4.24,0-3.1,0-4.74-.1-3.28-.2-4.93h1.65C309.74,64.74,310.43,64.73,311.19,64.69Z" transform="translate(-6.53 -3.86)"/><path class="cls-1" d="M324.88,82.4a20.6,20.6,0,0,0-2.45,0l-2.92.17c-1,.05-1.93.07-2.82.05a6.79,6.79,0,0,1-2.15-.33,2,2,0,0,1-1-.74,3.32,3.32,0,0,1-.57-1.23,4.85,4.85,0,0,1-.14-1.5,5.25,5.25,0,0,1,.29-1.53,4.53,4.53,0,0,1,.75-1.36,3.47,3.47,0,0,1,1.23-1,6.37,6.37,0,0,1,1.89-.51l2.07-.24a7.26,7.26,0,0,0,1.7-.38,1,1,0,0,0,.77-.9,1.29,1.29,0,0,0-.44-1.15,2.6,2.6,0,0,0-1.16-.5,2.27,2.27,0,0,0-.86,0,2.37,2.37,0,0,0-.81.32,2.1,2.1,0,0,0-.63.63,2.29,2.29,0,0,0-.35,1l-1.85,0c-.66,0-1.29,0-1.88,0a3.61,3.61,0,0,1,.57-2.08,4.29,4.29,0,0,1,1.45-1.33,6.68,6.68,0,0,1,2-.72,11.45,11.45,0,0,1,2.16-.21,9.43,9.43,0,0,1,2,.2,4.92,4.92,0,0,1,1.62.66A3.49,3.49,0,0,1,324.44,71a3.75,3.75,0,0,1,.41,1.81c0,1.56,0,3.16-.09,4.79A38.5,38.5,0,0,0,324.88,82.4Zm-3.69-2.8a2.08,2.08,0,0,0,.12-2.11,1.8,1.8,0,0,0-.74-.73,2.25,2.25,0,0,0-1.15-.28,5.25,5.25,0,0,0-1.07.1,2.41,2.41,0,0,0-.9.37,1.86,1.86,0,0,0-.62.71,2.43,2.43,0,0,0-.23,1.15,1.46,1.46,0,0,0,.61,1.32,2.55,2.55,0,0,0,1.39.44,4.53,4.53,0,0,0,1.55-.24A1.85,1.85,0,0,0,321.19,79.6Z" transform="translate(-6.53 -3.86)"/><path class="cls-1" d="M339,73.74l-1.73-.06c-.66,0-1.34,0-2,0a2.74,2.74,0,0,0-.93-1.8,2.33,2.33,0,0,0-1.46-.56,2.49,2.49,0,0,0-.85.14,2.38,2.38,0,0,0-.74.39,2.23,2.23,0,0,0-.52.62,1.76,1.76,0,0,0-.2.83,1.27,1.27,0,0,0,.19.77,1,1,0,0,0,.55.38,3.55,3.55,0,0,0,.84.17c.32,0,.67.08,1.06.15l1.32.15q.72.08,1.41.21a5.61,5.61,0,0,1,1.32.39,3.4,3.4,0,0,1,1.08.72,2,2,0,0,1,.44.78,4.08,4.08,0,0,1,.16,1.08,6.18,6.18,0,0,1-.09,1.2,3.77,3.77,0,0,1-.38,1.16,2.84,2.84,0,0,1-.69.8,5.68,5.68,0,0,1-1.16.76,8.05,8.05,0,0,1-1.55.57,6.75,6.75,0,0,1-1.81.23,14.45,14.45,0,0,1-2.09-.16,6.68,6.68,0,0,1-2.08-.67,4.49,4.49,0,0,1-1.59-1.41,4.06,4.06,0,0,1-.64-2.4,12,12,0,0,0,1.67.15,15.65,15.65,0,0,0,2.24-.15,2.9,2.9,0,0,0,.21,1.16,2.13,2.13,0,0,0,.52.78,2,2,0,0,0,.7.42,2.42,2.42,0,0,0,.73.12,5.68,5.68,0,0,0,.78-.08,3.25,3.25,0,0,0,.95-.33,2,2,0,0,0,.74-.65,1.25,1.25,0,0,0,.12-1,1.23,1.23,0,0,0-.35-.62,1.92,1.92,0,0,0-.64-.39,7.36,7.36,0,0,0-.83-.27c-.31-.08-.62-.15-.94-.21a16.25,16.25,0,0,0-2.14-.37,8.47,8.47,0,0,1-1.9-.41,2.65,2.65,0,0,1-1.91-2.87,4.23,4.23,0,0,1,.27-1.36,3.9,3.9,0,0,1,.95-1.46,5.58,5.58,0,0,1,1.86-1.15A8,8,0,0,1,332.8,69a10.37,10.37,0,0,1,2.77.31,4.63,4.63,0,0,1,1.83.91,4,4,0,0,1,1.08,1.49A7.94,7.94,0,0,1,339,73.74Z" transform="translate(-6.53 -3.86)"/><path class="cls-1" d="M352.92,82h-2.4l-1.29.06a11.91,11.91,0,0,1,.16-1.52,10.57,10.57,0,0,0,.12-1.6c0-.64,0-1.28-.05-1.9a10.55,10.55,0,0,0-.23-1.76,2.23,2.23,0,0,0-2.37-1.9,2.66,2.66,0,0,0-1.46.55,2.23,2.23,0,0,0-.89,1.38,7.08,7.08,0,0,0-.19,1.43c0,.55,0,1.13,0,1.72s0,1.19,0,1.8.05,1.19.07,1.73c-.44,0-.94,0-1.49,0s-1.3,0-2.25.06c0-.7.08-1.64.13-2.85s.09-2.57.12-4.11,0-3.19,0-5-.08-3.53-.18-5.31c.44,0,1,.06,1.6.08s1.35,0,2.16,0c-.05.37-.1.79-.14,1.26s-.07.93-.08,1.41a11.57,11.57,0,0,0,0,1.34,5,5,0,0,0,.24,1.1,1.31,1.31,0,0,0,.55.61,2.49,2.49,0,0,0,.84.25,5.34,5.34,0,0,0,1,0l.91-.1a7.54,7.54,0,0,1,1.83,0,3.56,3.56,0,0,1,1.54.51,3.23,3.23,0,0,1,1.1,1.23,5.5,5.5,0,0,1,.54,2.16c.05.67.07,1.31.07,1.91s0,1.2,0,1.8,0,1.19,0,1.79S352.88,81.29,352.92,82Z" transform="translate(-6.53 -3.86)"/><path class="cls-1" d="M369.6,65.12l-.54,2c-.22.78-.45,1.63-.7,2.55s-.52,1.91-.78,2.95-.52,2.09-.77,3.15-.48,2.12-.69,3.17-.37,2.07-.51,3l-3-.09c-1.22,0-2.6,0-4.14.09-.08-.49-.22-1.16-.4-2s-.45-1.91-.79-3.2-.75-3-1.24-4.86-1.06-4.06-1.71-6.57H356l2.23,0c.09.88.22,1.79.39,2.72s.36,1.83.57,2.71.44,1.69.68,2.46a20.3,20.3,0,0,0,.76,2,8,8,0,0,0,.77,1.36c.24.33.48.49.69.49s.44-.18.69-.56A8.59,8.59,0,0,0,363.6,75a18.85,18.85,0,0,0,.74-2.14c.24-.8.46-1.64.65-2.52s.36-1.77.48-2.66a21.14,21.14,0,0,0,.22-2.52c.54,0,1.11,0,1.72,0S368.74,65.16,369.6,65.12Z" transform="translate(-6.53 -3.86)"/><path class="cls-1" d="M383.37,76.66c-1.8,0-3.3,0-4.5,0a23.68,23.68,0,0,0-2.82.28,1.89,1.89,0,0,0-.84.29,1.32,1.32,0,0,0-.44.48,1.37,1.37,0,0,0-.15.55,2.49,2.49,0,0,0,0,.48,1.85,1.85,0,0,0,.93,1.33,3,3,0,0,0,1.69.45,2.39,2.39,0,0,0,.9-.23,2.23,2.23,0,0,0,.68-.54,2.43,2.43,0,0,0,.46-.73,2.65,2.65,0,0,0,.19-.81c.66,0,1.33,0,2,0s1.26,0,1.71,0a2.91,2.91,0,0,1-.08.86,6.58,6.58,0,0,1-.32.91,3.89,3.89,0,0,1-.5.84,3,3,0,0,1-.64.64,7,7,0,0,1-2.11,1,9.64,9.64,0,0,1-2.67.35,6.86,6.86,0,0,1-2.77-.5,5.5,5.5,0,0,1-1.8-1.23,4.89,4.89,0,0,1-1-1.59,6.1,6.1,0,0,1-.4-1.53,16,16,0,0,1,0-3.31,7.54,7.54,0,0,1,.84-2.84,5.22,5.22,0,0,1,1.95-2,6.33,6.33,0,0,1,3.27-.76,9.2,9.2,0,0,1,3.19.48,4.54,4.54,0,0,1,2,1.45,5.65,5.65,0,0,1,1,2.38A13.92,13.92,0,0,1,383.37,76.66Zm-3.66-2.49a1.83,1.83,0,0,0,0-1.11,2.51,2.51,0,0,0-1.41-1.56,2.45,2.45,0,0,0-1-.23,2.4,2.4,0,0,0-1,.23,2.82,2.82,0,0,0-.9.63,2.6,2.6,0,0,0-.6,1,2.13,2.13,0,0,0-.08,1.18q.11.44.81.57a6.66,6.66,0,0,0,1.58.09c.3,0,.6-.05.89-.09a6.58,6.58,0,0,0,.77-.15,2.51,2.51,0,0,0,.59-.22A.5.5,0,0,0,379.71,74.17Z" transform="translate(-6.53 -3.86)"/><path class="cls-1" d="M397.23,75.08c-.44,0-1,0-1.61-.06s-1.34,0-2.12,0a5.34,5.34,0,0,0-.67-2.71,1.78,1.78,0,0,0-1.77-.8,2.65,2.65,0,0,0-1.5.62,2.72,2.72,0,0,0-.86,1.9c0,.27-.06.7-.08,1.29s0,1.27,0,2,0,1.54,0,2.35,0,1.57.1,2.28c-.42,0-.94,0-1.54,0s-1.28,0-2,.07c0-.87.06-1.85.08-2.94s0-2.2,0-3.31,0-2.2-.07-3.23-.08-1.91-.15-2.64c1.07,0,2.06-.1,3-.2s1.89-.2,2.9-.28a13.49,13.49,0,0,1,2.84,0,5.16,5.16,0,0,1,2.42,1A2.46,2.46,0,0,1,397,72,14.25,14.25,0,0,1,397.23,75.08Z" transform="translate(-6.53 -3.86)"/><path class="cls-1" d="M410.82,73.74l-1.73-.06c-.66,0-1.33,0-2,0a2.69,2.69,0,0,0-.92-1.8,2.35,2.35,0,0,0-1.46-.56,2.45,2.45,0,0,0-.85.14,2.27,2.27,0,0,0-.74.39,2.07,2.07,0,0,0-.52.62,1.65,1.65,0,0,0-.21.83,1.34,1.34,0,0,0,.19.77,1,1,0,0,0,.55.38,3.77,3.77,0,0,0,.84.17c.32,0,.68.08,1.07.15l1.32.15q.71.08,1.41.21a5.91,5.91,0,0,1,1.32.39,3.64,3.64,0,0,1,1.08.72,1.94,1.94,0,0,1,.43.78,4.08,4.08,0,0,1,.16,1.08,6.18,6.18,0,0,1-.09,1.2,3.52,3.52,0,0,1-.38,1.16,2.79,2.79,0,0,1-.68.8,5.5,5.5,0,0,1-1.17.76,7.81,7.81,0,0,1-1.55.57,6.73,6.73,0,0,1-1.8.23,14.48,14.48,0,0,1-2.1-.16,6.77,6.77,0,0,1-2.08-.67,4.49,4.49,0,0,1-1.59-1.41,4.13,4.13,0,0,1-.63-2.4,11.83,11.83,0,0,0,1.66.15,15.87,15.87,0,0,0,2.25-.15,2.9,2.9,0,0,0,.2,1.16,2.26,2.26,0,0,0,.52.78,2.11,2.11,0,0,0,.7.42,2.43,2.43,0,0,0,.74.12,5.71,5.71,0,0,0,.77-.08,3.25,3.25,0,0,0,.95-.33,2,2,0,0,0,.74-.65,1.25,1.25,0,0,0,.13-1A1.32,1.32,0,0,0,407,78a2,2,0,0,0-.63-.39,8.3,8.3,0,0,0-.84-.27c-.31-.08-.62-.15-.94-.21a15.83,15.83,0,0,0-2.13-.37,8.44,8.44,0,0,1-1.91-.41,2.63,2.63,0,0,1-1.9-2.87,4.19,4.19,0,0,1,.26-1.36,3.93,3.93,0,0,1,1-1.46,5.42,5.42,0,0,1,1.85-1.15,8,8,0,0,1,2.94-.47,10.32,10.32,0,0,1,2.77.31,4.5,4.5,0,0,1,1.83.91,3.82,3.82,0,0,1,1.08,1.49A7.54,7.54,0,0,1,410.82,73.74Z" transform="translate(-6.53 -3.86)"/><path class="cls-1" d="M424.76,76.66c-1.79,0-3.29,0-4.49,0a23.68,23.68,0,0,0-2.82.28,1.8,1.8,0,0,0-.84.29,1.32,1.32,0,0,0-.44.48,1.24,1.24,0,0,0-.16.55,3.54,3.54,0,0,0,0,.48,1.87,1.87,0,0,0,.92,1.33,3,3,0,0,0,1.69.45,2.3,2.3,0,0,0,.9-.23,2.15,2.15,0,0,0,.69-.54,2.57,2.57,0,0,0,.65-1.54c.66,0,1.33,0,2,0s1.25,0,1.71,0a2.63,2.63,0,0,1-.09.86,5.43,5.43,0,0,1-.31.91,4.34,4.34,0,0,1-.5.84,2.81,2.81,0,0,1-.65.64,7,7,0,0,1-2.1,1,9.64,9.64,0,0,1-2.67.35,6.83,6.83,0,0,1-2.77-.5,5.3,5.3,0,0,1-1.8-1.23,4.89,4.89,0,0,1-1-1.59,6.16,6.16,0,0,1-.41-1.53,16.65,16.65,0,0,1,0-3.31,7.54,7.54,0,0,1,.84-2.84,5.27,5.27,0,0,1,1.94-2,6.39,6.39,0,0,1,3.28-.76,9.2,9.2,0,0,1,3.19.48,4.51,4.51,0,0,1,2,1.45,5.54,5.54,0,0,1,1,2.38A13.45,13.45,0,0,1,424.76,76.66Zm-3.65-2.49a1.83,1.83,0,0,0,0-1.11,2.51,2.51,0,0,0-1.41-1.56,2.2,2.2,0,0,0-2,0,3.06,3.06,0,0,0-.9.63,2.71,2.71,0,0,0-.59,1,2,2,0,0,0-.08,1.18q.1.44.81.57a6.66,6.66,0,0,0,1.58.09c.3,0,.6-.05.89-.09a7,7,0,0,0,.77-.15,2.69,2.69,0,0,0,.59-.22A.53.53,0,0,0,421.11,74.17Z" transform="translate(-6.53 -3.86)"/><path class="cls-1" d="M446.73,78.41a2.92,2.92,0,0,1-1.14,2.39,6.71,6.71,0,0,1-2.95,1.27,15.54,15.54,0,0,1-1.74.19c-.73,0-1.56.06-2.47.06s-1.89,0-2.91-.06-2-.12-3-.22c0-.71.07-1.66.11-2.86s.05-2.54.05-4.05,0-3.13-.08-4.86-.15-3.51-.3-5.32c.89,0,1.81,0,2.74,0l2.77-.17c1,0,1.87-.08,2.72-.1a11.19,11.19,0,0,1,2.26.18,5.09,5.09,0,0,1,2.74,1.33,3.7,3.7,0,0,1,1,2.43,6.11,6.11,0,0,1-.55,3.2,3.41,3.41,0,0,1-2.19,1.8v.18A2.81,2.81,0,0,1,446,75.21,6.39,6.39,0,0,1,446.73,78.41Zm-5.05-7.29a2.91,2.91,0,0,0,.48-.93,2.76,2.76,0,0,0,.14-1.1A2.42,2.42,0,0,0,442,68a2.08,2.08,0,0,0-.89-.84,3.46,3.46,0,0,0-.83-.3,4.59,4.59,0,0,0-1.06-.15,4.07,4.07,0,0,0-1.05.08,1.94,1.94,0,0,0-.84.4,2.12,2.12,0,0,0-.63,1,3.79,3.79,0,0,0-.21,1.26,4.51,4.51,0,0,0,.17,1.23,2,2,0,0,0,.47.89,2,2,0,0,0,1.05.54,3.65,3.65,0,0,0,1.32,0,4.23,4.23,0,0,0,1.27-.37A2.5,2.5,0,0,0,441.68,71.12Zm-.26,8.28a2.19,2.19,0,0,0,.66-1,4,4,0,0,0,.25-1.41,3.4,3.4,0,0,0-.32-1.38,1.67,1.67,0,0,0-1-.88,4.16,4.16,0,0,0-.8-.16,8.46,8.46,0,0,0-1,0,6.61,6.61,0,0,0-1,.08,2,2,0,0,0-.76.26,1.67,1.67,0,0,0-.72,1,4.08,4.08,0,0,0-.15,1.4,4.76,4.76,0,0,0,.24,1.34,1.88,1.88,0,0,0,.45.85,2.18,2.18,0,0,0,.88.39,5.25,5.25,0,0,0,1.21.1,5.79,5.79,0,0,0,1.2-.17A2.35,2.35,0,0,0,441.42,79.4Z" transform="translate(-6.53 -3.86)"/><path class="cls-1" d="M460.5,74.07c0,.16,0,.47,0,.9s0,.92,0,1.46-.07,1.09-.13,1.65a8.81,8.81,0,0,1-.27,1.47,2.79,2.79,0,0,1-.6,1,4.84,4.84,0,0,1-1.07.92,6.83,6.83,0,0,1-1.44.68,5.9,5.9,0,0,1-1.69.33,13.23,13.23,0,0,1-1.66,0,7.06,7.06,0,0,1-1.42-.19,5.8,5.8,0,0,1-1.29-.45,10.64,10.64,0,0,1-1.24-.76,3.1,3.1,0,0,1-.88-1,5,5,0,0,1-.48-1.3,8.41,8.41,0,0,1-.2-1.55c0-.55,0-1.13,0-1.74a8.39,8.39,0,0,1,.77-3.23,5.73,5.73,0,0,1,.77-1.27,3.6,3.6,0,0,1,.95-.86,5.88,5.88,0,0,1,2.86-.84,14.44,14.44,0,0,1,3.26.23,4.47,4.47,0,0,1,1.63.62,4.3,4.3,0,0,1,1.14,1.06,4.58,4.58,0,0,1,.71,1.35A6.22,6.22,0,0,1,460.5,74.07Zm-3.56,3.55A12.32,12.32,0,0,0,457,75.8a10.21,10.21,0,0,0-.17-1.65,5.3,5.3,0,0,0-.4-1.29,1.82,1.82,0,0,0-.68-.78,2.59,2.59,0,0,0-1.09-.31,2.81,2.81,0,0,0-1.12.14,2.71,2.71,0,0,0-.94.55,2,2,0,0,0-.55,1,9.16,9.16,0,0,0-.18,1,10.92,10.92,0,0,0-.1,1.15,11,11,0,0,0,0,1.15c0,.37,0,.68.07.94a4.48,4.48,0,0,0,.27.94,3,3,0,0,0,.52.86,2.45,2.45,0,0,0,.83.61,2.41,2.41,0,0,0,1.13.2,2.13,2.13,0,0,0,.92-.3,2.78,2.78,0,0,0,.73-.64,3.27,3.27,0,0,0,.48-.83A3,3,0,0,0,456.94,77.62Z" transform="translate(-6.53 -3.86)"/><path class="cls-1" d="M474.42,75.72c0,.55,0,1.11,0,1.65a6.58,6.58,0,0,1-.2,1.55,4.73,4.73,0,0,1-.61,1.38,3.94,3.94,0,0,1-1.23,1.16,6.61,6.61,0,0,1-.95.49,7.46,7.46,0,0,1-1,.32,9.25,9.25,0,0,1-1.15.18c-.42,0-.9,0-1.46,0a8.62,8.62,0,0,1-1.76-.18,6.15,6.15,0,0,1-1.58-.55,4.37,4.37,0,0,1-1.26-.94,3.2,3.2,0,0,1-.76-1.36,9.14,9.14,0,0,1-.27-2.83c0-1.12.11-2.39.19-3.79.07-1.19.12-2.4.14-3.64s0-2.44,0-3.63a13.75,13.75,0,0,0,1.95.12c.6,0,1.11,0,1.55-.07a20.37,20.37,0,0,0,0,2.25,1.55,1.55,0,0,0,.59,1.28,2.79,2.79,0,0,0,1.22.37,18,18,0,0,0,1.94.15c.72,0,1.46,0,2.21,0l2.05-.06a7.77,7.77,0,0,0,0,1.19c0,.44,0,.87.06,1.27-.66,0-1.37,0-2.13,0s-1.49,0-2.19.09a15.47,15.47,0,0,0-1.81.22,1.87,1.87,0,0,0-1,.39,5.92,5.92,0,0,0-.77,1,3.21,3.21,0,0,0-.38.91,3.81,3.81,0,0,0-.12,1v1.2a4.41,4.41,0,0,0,.24,1.54,3.15,3.15,0,0,0,.63,1,2.24,2.24,0,0,0,.85.6,2.17,2.17,0,0,0,.92.17,2.09,2.09,0,0,0,1.19-.44,2.56,2.56,0,0,0,.73-1,4.65,4.65,0,0,0,.35-1.38,10.75,10.75,0,0,0,0-1.61c.64,0,1.32,0,2,0Z" transform="translate(-6.53 -3.86)"/></g></svg>